<?xml version="1.0" encoding="UTF-8" standalone="no"?>
<!DOCTYPE svg PUBLIC "-//W3C//DTD SVG 20010904//EN"
              "http://www.w3.org/TR/2001/REC-SVG-20010904/DTD/svg10.dtd">

<svg xmlns="http://www.w3.org/2000/svg"
     width="1.33333in" height="1.33333in"
     viewBox="0 0 120 120">
  <path id="Imported Path"
        fill="#7681B0" stroke="#7681B0" stroke-width="1"
        d="M 21.78,22.80
           C 18.48,28.85 15.37,37.14 13.87,43.96
             13.10,47.45 12.98,49.00 13.00,55.79
             13.02,63.13 13.09,63.82 14.07,67.16
             17.92,80.24 28.54,90.66 44.20,96.74
             50.00,98.99 55.82,100.54 55.82,99.82
             55.82,99.72 54.37,97.44 52.59,94.76
             41.52,78.08 34.00,59.73 32.40,45.49
             32.40,45.49 32.16,43.35 32.16,43.35
             32.16,43.35 33.85,47.44 33.85,47.44
             36.96,54.98 40.03,61.68 44.18,70.00
             45.93,73.50 52.57,85.61 53.75,87.46
             54.74,89.02 55.68,89.57 55.26,88.34
             54.62,86.50 53.85,82.36 53.48,78.79
             52.48,69.16 55.57,59.05 61.70,51.92
             62.52,50.97 63.19,49.82 63.19,49.37
             63.19,48.12 58.13,41.45 54.59,38.03
             48.28,31.91 41.42,27.38 32.01,23.08
             28.79,21.62 25.52,20.32 24.74,20.21
             24.74,20.21 23.31,20.00 23.31,20.00
             23.31,20.00 21.78,22.80 21.78,22.80 Z
           M 97.63,35.19
           C 82.96,38.91 70.26,46.03 63.66,54.25
             55.76,64.10 54.32,77.69 59.72,91.67
             61.24,95.63 62.33,97.62 62.87,97.45
             63.10,97.38 64.02,95.33 64.92,92.90
             67.19,86.76 69.09,82.45 71.72,77.46
             75.98,69.37 83.05,59.54 87.94,54.92
             87.94,54.92 90.02,52.95 90.02,52.95
             90.02,52.95 89.06,54.54 89.06,54.54
             88.53,55.42 87.22,57.60 86.14,59.38
             79.54,70.32 67.94,94.24 67.17,98.53
             66.97,99.67 66.99,99.69 68.08,99.47
             80.42,96.96 93.31,89.38 99.55,80.95
             107.29,70.49 109.06,56.10 104.58,39.97
             103.42,35.80 102.76,34.49 101.76,34.40
             101.34,34.37 99.48,34.72 97.63,35.19 Z" />
</svg>
