<?xml version="1.0" encoding="UTF-8" standalone="no"?>
<!DOCTYPE svg PUBLIC "-//W3C//DTD SVG 20010904//EN"
              "http://www.w3.org/TR/2001/REC-SVG-20010904/DTD/svg10.dtd">

<svg xmlns="http://www.w3.org/2000/svg"
     width="1.33333in" height="1.33333in"
     viewBox="0 0 120 120">
  <path id="Imported Path"
        fill="#7681B0" stroke="#7681B0" stroke-width="1"
        d="M 49.48,89.80
           C 49.48,89.80 47.67,88.89 47.67,88.89
             47.20,88.66 46.78,88.36 46.39,88.02
             46.39,88.02 30.91,88.02 30.91,88.02
             29.85,88.02 28.99,87.16 28.99,86.10
             28.99,86.10 28.99,18.03 28.99,18.03
             28.99,16.97 29.85,16.11 30.91,16.11
             30.91,16.11 82.43,16.11 82.43,16.11
             83.49,16.11 84.35,16.97 84.35,18.03
             84.35,18.03 84.35,53.14 84.35,53.14
             85.21,53.34 86.03,53.72 86.74,54.25
             88.15,55.25 89.12,56.85 89.38,58.60
             89.38,58.60 89.46,18.04 89.46,18.04
             89.46,14.16 86.31,11.00 82.43,11.00
             82.43,11.00 30.91,11.00 30.91,11.00
             27.03,11.00 23.87,14.16 23.87,18.04
             23.87,18.04 23.87,86.11 23.87,86.11
             23.87,89.99 27.04,93.15 30.91,93.15
             30.91,93.15 46.13,93.15 46.13,93.15
             46.13,93.15 49.48,89.80 49.48,89.80 Z
           M 64.21,46.72
           C 64.21,46.72 37.47,46.72 37.47,46.72
             36.51,46.72 35.73,47.33 35.73,48.09
             35.73,48.85 36.51,49.47 37.47,49.47
             37.47,49.47 64.21,49.47 64.21,49.47
             65.17,49.47 65.95,48.85 65.95,48.09
             65.95,47.33 65.17,46.72 64.21,46.72 Z
           M 64.21,41.22
           C 64.21,41.22 37.47,41.22 37.47,41.22
             36.51,41.22 35.73,41.84 35.73,42.59
             35.73,43.35 36.51,43.97 37.47,43.97
             37.47,43.97 64.21,43.97 64.21,43.97
             65.17,43.97 65.95,43.36 65.95,42.60
             65.95,41.84 65.17,41.22 64.21,41.22 Z
           M 75.43,24.74
           C 75.43,24.74 38.16,24.74 38.16,24.74
             36.82,24.74 35.73,25.35 35.73,26.11
             35.73,26.87 36.81,27.49 38.16,27.49
             38.16,27.49 75.43,27.49 75.43,27.49
             76.77,27.49 77.86,26.87 77.86,26.11
             77.86,25.35 76.77,24.74 75.43,24.74 Z
           M 75.43,30.23
           C 75.43,30.23 38.16,30.23 38.16,30.23
             36.82,30.23 35.73,30.85 35.73,31.60
             35.73,32.36 36.81,32.98 38.16,32.98
             38.16,32.98 75.43,32.98 75.43,32.98
             76.77,32.98 77.86,32.37 77.86,31.61
             77.86,30.85 76.77,30.23 75.43,30.23 Z
           M 64.21,35.73
           C 64.21,35.73 37.47,35.73 37.47,35.73
             36.51,35.73 35.73,36.34 35.73,37.10
             35.73,37.86 36.51,38.48 37.47,38.48
             37.47,38.48 64.21,38.48 64.21,38.48
             65.17,38.48 65.95,37.86 65.95,37.10
             65.95,36.34 65.17,35.73 64.21,35.73 Z
           M 63.50,97.29
           C 63.50,97.29 58.98,98.02 58.98,98.02
             57.71,98.22 56.48,97.92 55.48,97.18
             54.49,96.47 53.81,95.34 53.63,94.11
             53.63,94.11 53.23,91.48 53.23,91.48
             53.23,91.48 45.38,99.33 45.38,99.33
             44.99,99.72 44.84,100.30 45.00,100.83
             45.17,101.36 45.62,101.75 46.15,101.86
             46.15,101.86 51.14,102.79 51.14,102.79
             51.14,102.79 52.08,107.78 52.08,107.78
             52.18,108.33 52.57,108.77 53.10,108.93
             53.63,109.09 54.21,108.95 54.60,108.56
             54.60,108.56 64.85,98.30 64.85,98.30
             64.85,98.30 64.10,97.54 64.10,97.54
             63.94,97.38 63.72,97.29 63.50,97.29 Z
           M 95.68,99.33
           C 95.68,99.33 87.82,91.48 87.82,91.48
             87.82,91.48 87.43,94.13 87.43,94.13
             87.24,95.35 86.56,96.47 85.56,97.19
             84.57,97.92 83.32,98.23 82.08,98.02
             82.08,98.02 77.69,97.31 77.69,97.31
             77.33,97.28 77.11,97.38 76.95,97.55
             76.95,97.55 76.20,98.30 76.20,98.30
             76.20,98.30 86.46,108.56 86.46,108.56
             86.86,108.95 87.43,109.09 87.96,108.93
             88.49,108.77 88.88,108.33 88.99,107.78
             88.99,107.78 89.92,102.80 89.92,102.80
             89.92,102.80 94.91,101.86 94.91,101.86
             95.46,101.76 95.90,101.37 96.06,100.83
             96.22,100.30 96.07,99.72 95.68,99.33 Z
           M 70.53,61.64
           C 62.57,61.64 56.09,68.11 56.09,76.06
             56.09,84.02 62.57,90.49 70.53,90.49
             78.49,90.49 84.96,84.02 84.96,76.06
             84.96,68.11 78.49,61.64 70.53,61.64 Z
           M 82.38,96.17
           C 83.11,96.29 83.86,96.11 84.46,95.67
             85.05,95.24 85.47,94.58 85.57,93.84
             85.57,93.84 86.23,89.46 86.23,89.46
             86.37,88.58 86.92,87.84 87.71,87.43
             87.71,87.43 91.67,85.45 91.67,85.45
             92.35,85.11 92.85,84.53 93.07,83.83
             93.31,83.12 93.23,82.35 92.90,81.69
             92.90,81.69 90.86,77.74 90.86,77.74
             90.45,76.97 90.45,76.03 90.86,75.25
             90.86,75.25 92.90,71.31 92.90,71.31
             93.23,70.64 93.30,69.88 93.07,69.17
             92.84,68.46 92.34,67.88 91.67,67.54
             91.67,67.54 87.71,65.56 87.71,65.56
             86.92,65.16 86.37,64.41 86.23,63.53
             86.23,63.53 85.57,59.15 85.57,59.15
             85.47,58.42 85.05,57.76 84.46,57.33
             83.86,56.88 83.11,56.70 82.38,56.83
             82.38,56.83 77.99,57.56 77.99,57.56
             77.12,57.70 76.24,57.41 75.62,56.79
             75.62,56.79 72.51,53.62 72.51,53.62
             71.98,53.10 71.27,52.80 70.53,52.80
             69.79,52.80 69.07,53.10 68.55,53.62
             68.55,53.62 65.43,56.79 65.43,56.79
             64.81,57.42 63.93,57.70 63.06,57.56
             63.06,57.56 58.68,56.84 58.68,56.84
             57.95,56.72 57.20,56.90 56.60,57.34
             56.00,57.77 55.59,58.43 55.48,59.16
             55.48,59.16 54.83,63.54 54.83,63.54
             54.69,64.42 54.14,65.17 53.35,65.57
             53.35,65.57 49.38,67.55 49.38,67.55
             48.72,67.89 48.21,68.47 47.99,69.18
             47.76,69.89 47.82,70.65 48.16,71.32
             48.16,71.32 50.20,75.26 50.20,75.26
             50.60,76.04 50.60,76.98 50.20,77.75
             50.20,77.75 48.16,81.70 48.16,81.70
             47.82,82.36 47.76,83.13 47.99,83.84
             48.22,84.55 48.72,85.13 49.38,85.47
             49.38,85.47 53.35,87.45 53.35,87.45
             54.14,87.85 54.69,88.60 54.83,89.48
             54.83,89.48 55.48,93.85 55.48,93.85
             55.59,94.59 56.00,95.25 56.60,95.68
             57.20,96.12 57.94,96.30 58.68,96.18
             58.68,96.18 63.06,95.46 63.06,95.46
             63.93,95.31 64.81,95.60 65.43,96.23
             65.43,96.23 68.55,99.39 68.55,99.39
             69.07,99.93 69.79,100.22 70.53,100.22
             71.27,100.22 71.98,99.93 72.51,99.39
             72.51,99.39 75.62,96.23 75.62,96.23
             76.24,95.60 77.13,95.31 77.99,95.46
             77.99,95.46 82.38,96.17 82.38,96.17 Z
           M 70.52,92.98
           C 61.21,92.98 53.63,85.40 53.63,76.09
             53.63,66.78 61.21,59.20 70.52,59.20
             79.84,59.20 87.41,66.78 87.41,76.09
             87.41,85.40 79.84,92.98 70.52,92.98 Z" />
</svg>
