<svg xmlns="http://www.w3.org/2000/svg" width="128" height="128" viewBox="0 0 120 120"><path id="Imported Path" fill="#7681B0" stroke="#7681B0" stroke-width="1" d="M21.78 22.8c-3.3 6.05-6.41 14.34-7.91 21.16-.77 3.49-.89 5.04-.87 11.83.02 7.34.09 8.03 1.07 11.37 3.85 13.08 14.47 23.5 30.13 29.58 5.8 2.25 11.62 3.8 11.62 3.08 0-.1-1.45-2.38-3.23-5.06C41.52 78.08 34 59.73 32.4 45.49l-.24-2.14 1.69 4.09c3.11 7.54 6.18 14.24 10.33 22.56 1.75 3.5 8.39 15.61 9.57 17.46.99 1.56 1.93 2.11 1.51.88-.64-1.84-1.41-5.98-1.78-9.55-1-9.63 2.09-19.74 8.22-26.87.82-.95 1.49-2.1 1.49-2.55 0-1.25-5.06-7.92-8.6-11.34-6.31-6.12-13.17-10.65-22.58-14.95-3.22-1.46-6.49-2.76-7.27-2.87L23.31 20l-1.53 2.8Zm75.85 12.39c-14.67 3.72-27.37 10.84-33.97 19.06-7.9 9.85-9.34 23.44-3.94 37.42 1.52 3.96 2.61 5.95 3.15 5.78.23-.07 1.15-2.12 2.05-4.55 2.27-6.14 4.17-10.45 6.8-15.44 4.26-8.09 11.33-17.92 16.22-22.54l2.08-1.97-.96 1.59c-.53.88-1.84 3.06-2.92 4.84-6.6 10.94-18.2 34.86-18.97 39.15-.2 1.14-.18 1.16.91.94 12.34-2.51 25.23-10.09 31.47-18.52 7.74-10.46 9.51-24.85 5.03-40.98-1.16-4.17-1.82-5.48-2.82-5.57-.42-.03-2.28.32-4.13.79Z"/></svg>