<svg xmlns="http://www.w3.org/2000/svg" width="128" height="128" viewBox="0 0 120 120"><path id="Imported Path" fill="#7681B0" stroke="#7681B0" stroke-width="1" d="M62.27 30.24c2.04 1.57 5.1 3.46 8.18 3.46.33 0 .66-.03.97-.07.14-.02.26-.1.33-.23.07-.12.08-.27.02-.4-1.92-4.28-5.1-8.84-9.59-13.16 4.82 3.25 8.52 8.03 10.97 11.99a.447.447 0 0 0 .82-.17c.49-3.18-.36-6.62-2.45-9.93-1.52-2.42-3.17-3.93-3.32-4.07-4.45-4.45-12.07-5.44-15.14-5.66a.43.43 0 0 0-.34.13c-.1.09-.14.22-.13.35.28 4.06 1.61 8.11 3.73 11.39 1.41 2.18 3.64 4.56 5.95 6.37Zm-6.59 23.14c3.05 2.37 7.66 5.2 12.28 5.2.5 0 .99-.04 1.46-.1.21-.03.39-.16.49-.34a.64.64 0 0 0 .03-.6c-2.89-6.44-7.66-13.28-14.4-19.77 7.24 4.88 12.79 12.07 16.47 18 .15.24.43.36.7.31a.67.67 0 0 0 .53-.56c.73-4.78-.54-9.93-3.68-14.91-2.29-3.63-4.75-5.9-4.98-6.11-6.69-6.69-18.12-8.17-22.73-8.49a.641.641 0 0 0-.52.19c-.14.14-.21.33-.19.52.43 6.1 2.42 12.17 5.6 17.1 2.12 3.28 5.46 6.86 8.94 9.56Zm19.19-7.47c.29.06.58-.07.74-.32 3.86-6.23 9.68-13.77 17.28-18.9-7.08 6.82-12.08 14-15.11 20.75-.09.2-.08.44.02.63.11.19.3.33.52.36.5.06 1.01.1 1.53.1 4.85 0 9.69-2.96 12.89-5.45 3.65-2.84 7.16-6.59 9.38-10.04 3.34-5.16 5.43-11.54 5.88-17.93a.695.695 0 0 0-.21-.55.687.687 0 0 0-.54-.21c-4.84.35-16.83 1.9-23.85 8.92-.24.22-2.83 2.6-5.23 6.41-3.29 5.22-4.63 10.63-3.86 15.64.05.3.27.53.56.59Zm23.18 25.24c-5.45.34-12.62 5.79-19.53 8.93-8.47 3.84-21.65.75-21.66.75 2.04-.95 10.3-2.93 11.97-3.66 8.85-3.9 8.1-12.04 3.89-11.97-5.58.09-8.84 1.46-19.95 2.98-8.42 1.15-18.38.73-23.16 2.56C22.86 73.32 12 90.69 12 90.69L28.8 107s10.39-10.26 15.45-10.26c11.53 0 11.99-.16 22.7-.74 4.55-.24 5.5-.43 8.1-1.31 13.88-4.7 28.77-17.22 29.05-18.73.64-3.49-3.17-4.99-6.05-4.81Z"/></svg>