<?xml version="1.0" encoding="UTF-8" standalone="no"?>
<!DOCTYPE svg PUBLIC "-//W3C//DTD SVG 20010904//EN"
              "http://www.w3.org/TR/2001/REC-SVG-20010904/DTD/svg10.dtd">

<svg xmlns="http://www.w3.org/2000/svg" width="1.33333in" height="1.33333in" viewBox="0 0 120 120">
  <path id="Imported Path" fill="#7681B0" stroke="#7681B0" stroke-width="1" d="M 62.27,30.24
           C 64.31,31.81 67.37,33.70 70.45,33.70
             70.78,33.70 71.11,33.67 71.42,33.63
             71.56,33.61 71.68,33.53 71.75,33.40
             71.82,33.28 71.83,33.13 71.77,33.00
             69.85,28.72 66.67,24.16 62.18,19.84
             67.00,23.09 70.70,27.87 73.15,31.83
             73.25,31.99 73.43,32.07 73.62,32.03
             73.80,31.99 73.94,31.85 73.97,31.66
             74.46,28.48 73.61,25.04 71.52,21.73
             70.00,19.31 68.35,17.80 68.20,17.66
             63.75,13.21 56.13,12.22 53.06,12.00
             52.93,11.99 52.81,12.04 52.72,12.13
             52.62,12.22 52.58,12.35 52.59,12.48
             52.87,16.54 54.20,20.59 56.32,23.87
             57.73,26.05 59.96,28.43 62.27,30.24 Z
           M 55.68,53.38
           C 58.73,55.75 63.34,58.58 67.96,58.58
             68.46,58.58 68.95,58.54 69.42,58.48
             69.63,58.45 69.81,58.32 69.91,58.14
             70.02,57.95 70.03,57.73 69.94,57.54
             67.05,51.10 62.28,44.26 55.54,37.77
             62.78,42.65 68.33,49.84 72.01,55.77
             72.16,56.01 72.44,56.13 72.71,56.08
             72.99,56.02 73.20,55.80 73.24,55.52
             73.97,50.74 72.70,45.59 69.56,40.61
             67.27,36.98 64.81,34.71 64.58,34.50
             57.89,27.81 46.46,26.33 41.85,26.01
             41.66,25.99 41.47,26.06 41.33,26.20
             41.19,26.34 41.12,26.53 41.14,26.72
             41.57,32.82 43.56,38.89 46.74,43.82
             48.86,47.10 52.20,50.68 55.68,53.38 Z
           M 74.87,45.91
           C 75.16,45.97 75.45,45.84 75.61,45.59
             79.47,39.36 85.29,31.82 92.89,26.69
             85.81,33.51 80.81,40.69 77.78,47.44
             77.69,47.64 77.70,47.88 77.80,48.07
             77.91,48.26 78.10,48.40 78.32,48.43
             78.82,48.49 79.33,48.53 79.85,48.53
             84.70,48.53 89.54,45.57 92.74,43.08
             96.39,40.24 99.90,36.49 102.12,33.04
             105.46,27.88 107.55,21.50 108.00,15.11
             108.01,14.90 107.94,14.70 107.79,14.56
             107.65,14.41 107.45,14.34 107.25,14.35
             102.41,14.70 90.42,16.25 83.40,23.27
             83.16,23.49 80.57,25.87 78.17,29.68
             74.88,34.90 73.54,40.31 74.31,45.32
             74.36,45.62 74.58,45.85 74.87,45.91 Z
           M 98.05,71.15
           C 92.60,71.49 85.43,76.94 78.52,80.08
             70.05,83.92 56.87,80.83 56.86,80.83
             58.90,79.88 67.16,77.90 68.83,77.17
             77.68,73.27 76.93,65.13 72.72,65.20
             67.14,65.29 63.88,66.66 52.77,68.18
             44.35,69.33 34.39,68.91 29.61,70.74
             22.86,73.32 12.00,90.69 12.00,90.69
             12.00,90.69 28.80,107.00 28.80,107.00
             28.80,107.00 39.19,96.74 44.25,96.74
             55.78,96.74 56.24,96.58 66.95,96.00
             71.50,95.76 72.45,95.57 75.05,94.69
             88.93,89.99 103.82,77.47 104.10,75.96
             104.74,72.47 100.93,70.97 98.05,71.15 Z"></path>
</svg>
