<svg xmlns="http://www.w3.org/2000/svg" width="128" height="128" viewBox="0 0 120 120"><path id="Imported Path" fill="#7681B0" stroke="#7681B0" stroke-width="1" d="M51.78 12.17c-1.79.46-4.13 1.94-5.34 3.39l-.48.57-.89-.19c-1.28-.27-3.82-.25-4.92.04-2.67.69-4.79 2.49-6.21 5.27l-.68 1.32-1.2.18c-2.47.36-4.38 1.26-5.91 2.79-1.53 1.54-2.43 3.44-2.79 5.94l-.17 1.21-1.03.49c-2.12 1.01-3.79 2.55-4.74 4.36-.76 1.46-1.03 2.59-1.03 4.3v1.4h-7.6l.04.77.05.77 15.75.03 15.75.04.58-.83c.91-1.3 3.8-4.11 5.33-5.2 2.56-1.81 5.87-3.27 8.97-3.94 1.69-.37 5.88-.52 7.73-.27 6.08.79 11.9 4.12 15.61 8.9l1.02 1.32 15.72.01 15.71.01v-1.61h-7.44v-1.3c0-1.7-.19-2.58-.89-4.1-.48-1.03-.78-1.44-1.85-2.49-1.02-1.01-1.54-1.4-2.67-1.98l-1.41-.71-.15-1.13c-.7-4.95-3.8-8.07-8.71-8.78l-1.19-.18-.71-1.4c-.57-1.12-.96-1.65-1.96-2.66-1.35-1.37-2.57-2.11-4.19-2.53-1.05-.27-3.97-.29-5.06-.03l-.72.17-1.12-1.1c-1.21-1.2-2.69-2.15-4.12-2.66-.75-.27-1.23-.33-2.73-.33-2.07-.01-2.98.22-5 1.24l-1.14.58-1.12-.57c-1.84-.93-2.82-1.2-4.63-1.27-1.11-.04-1.87.01-2.46.16Zm13.91 6.43c2.51.36 4.77.9 7.38 1.76 9.02 3 16.62 8.95 21.69 17 .86 1.37 3.02 5.48 3.02 5.75 0 .08-3.26.13-7.91.13h-7.92l-.01-.69c-.01-.4-.14-.95-.32-1.3-.62-1.2-2.17-2.12-3.19-1.89-.41.09-.42.08-.43-.56-.04-1.98-2.42-3.52-4.32-2.79-.14.05-.25-.13-.37-.59-.48-1.77-3.18-2.87-4.56-1.85l-.4.3-.27-.59c-.32-.72-.98-1.25-1.9-1.53-1.19-.36-2.21-.19-2.94.5l-.43.4-.3-.46c-.96-1.47-4.06-1.47-5.02 0l-.3.46-.41-.39c-1.32-1.23-4.03-.68-4.86.98l-.31.61-.41-.31c-.61-.46-1.98-.43-2.93.05-.81.41-1.49 1.25-1.63 2-.08.43-.13.48-.4.38-.18-.06-.69-.11-1.14-.1-.66.01-.98.1-1.53.44-.91.56-1.58 1.61-1.58 2.49 0 .64-.01.64-.45.56-1.57-.3-3.45 1.43-3.48 3.19l-.01.69H22.2l.1-.32c.23-.74 2.04-4.15 3.07-5.76 1.65-2.59 3.26-4.58 5.6-6.94 4.62-4.64 10.04-7.96 16.28-9.98 3.02-.97 5.76-1.53 9.32-1.91 1.35-.14 7.51.04 9.12.27Zm-10.43 2.2c-1.44.19-2.78.34-2.97.35-.33.01-.35.06-.28.68.05.36.1.68.13.71.03.02.6-.02 1.27-.1.67-.07 1.25-.1 1.3-.05.07.08.88 6.51.91 7.22 0 .12.2.15.7.09.38-.04.76-.1.85-.13.11-.03.03-1.14-.25-3.53-.22-1.92-.41-3.59-.41-3.72-.01-.19.25-.27 1.24-.39.68-.08 1.28-.18 1.32-.23.05-.04.04-.35-.02-.67-.09-.58-.12-.6-.63-.58-.29.01-1.72.17-3.16.35Zm5.57 1.64c-.06 1.03-.14 3.04-.2 4.46l-.09 2.6h1.63l.08-.77c.04-.42.11-1.79.15-3.03.05-1.25.12-2.91.17-3.7l.09-1.42h-1.74l-.09 1.86Zm4.37-1.31c-.11.38-1.54 7.65-1.59 8.06-.03.31.05.37.73.53.43.1.8.14.83.09.03-.05.2-.83.38-1.74.38-1.9.21-1.8 2.24-1.35.72.16 1.32.27 1.34.25.03-.02.11-.32.18-.67.11-.45.1-.64-.02-.67-.1-.03-.8-.17-1.56-.31-.76-.14-1.43-.27-1.47-.3-.1-.05.33-2.32.46-2.46.05-.05.87.08 1.82.28.95.21 1.81.37 1.9.37.16 0 .43-1.14.31-1.26-.07-.07-5.04-1.08-5.3-1.08-.1 0-.21.12-.25.26Zm-17.23 1.35c-.99.22-3.51 1.13-3.48 1.26.11.52 2.71 8.04 2.81 8.14.1.11 1.61-.26 1.61-.38 0-.02-.23-.67-.51-1.46-.28-.79-.51-1.52-.51-1.63 0-.11.2-.27.43-.35.5-.17.67-.08 2.56 1.43.67.53 1.24.88 1.38.84.12-.04.54-.15.92-.26.38-.11.69-.23.69-.27-.01-.07-2.99-2.33-3.49-2.63-.14-.1-.11-.2.13-.45.76-.76.94-1.98.44-3.02-.5-1.03-1.66-1.5-2.98-1.22Zm24.73.62c-2.05 5.41-2.92 7.92-2.77 8.01.41.26 1.32.48 1.43.35.1-.11 3.08-8.01 3.08-8.17 0-.06-1.31-.52-1.49-.52-.07 0-.18.15-.25.33Zm-23.48 1.12c.87.88.37 2.11-1.05 2.58-.4.13-.75.22-.78.19-.08-.1-.81-2.4-.81-2.57 0-.2 1.17-.6 1.8-.61.27-.01.56.13.84.41Zm26.02 3.04c-.88 1.58-1.84 3.31-2.14 3.84l-.54.96 2.38 1.35c1.31.75 2.42 1.35 2.47 1.35.11 0 .68-.88.68-1.04 0-.06-.74-.51-1.64-1.02-.91-.5-1.66-.93-1.69-.94-.07-.05 1.01-1.96 1.16-2.05.07-.05.67.22 1.33.6s1.25.72 1.31.75c.05.03.23-.2.39-.52l.3-.58-.47-.28c-.26-.16-.85-.5-1.31-.76-.46-.25-.84-.5-.84-.54 0-.18 1.1-1.95 1.22-1.95.07 0 .82.39 1.66.87.84.49 1.58.88 1.65.88.07 0 .26-.25.41-.55l.28-.55-.46-.27c-1.71-1-4.32-2.43-4.42-2.43-.07.01-.84 1.3-1.73 2.88ZM39.8 26.15c-1.29.79-2.32 1.5-2.3 1.59.04.14 4.36 7.31 4.49 7.44.05.05 1.84-1.01 4.34-2.57l.54-.34-.37-.56-.37-.57-1.68 1.02c-.92.57-1.69 1-1.71.98-.02-.03-.31-.5-.65-1.05l-.6-.98.76-.48c.41-.27 1-.64 1.3-.82.3-.18.55-.36.55-.39 0-.03-.14-.29-.31-.58-.28-.48-.33-.51-.62-.32-.86.55-2.08 1.25-2.24 1.3-.19.05-1.37-1.78-1.26-1.96.04-.06.78-.54 1.66-1.06l1.59-.97-.3-.5c-.16-.28-.34-.54-.39-.57-.06-.03-1.15.6-2.43 1.39Zm41.08 5.55c-1.63 1.77-2.94 3.28-2.91 3.35.11.34 3.01 2.84 3.68 3.19 1.61.83 3.7.38 5.04-1.08.9-.98 1.24-1.82 1.23-3.06-.01-1.51-.38-2.16-2.32-4.05-.88-.86-1.64-1.57-1.68-1.56-.04 0-1.41 1.45-3.04 3.21Zm-46.26-1.68c-1.05.49-2.08 1.6-2.49 2.67-.81 2.15.27 4.59 2.53 5.72 1.15.58 2.43.62 3.53.1 1.04-.48 2.2-1.79 2.49-2.81.33-1.12.26-1.29-.48-1.35-.57-.04-.62-.01-.7.37-.24 1.08-1 2.05-1.86 2.37-1.06.4-2.3.01-3.22-1-1.01-1.13-1.22-2.18-.66-3.34.36-.73 1.24-1.45 1.97-1.58.64-.12.79-.34.69-.99-.08-.48-.13-.54-.54-.53-.25 0-.82.17-1.26.37Zm51.32 2.35c.42.57.56 1.58.33 2.29-.23.68-1.22 1.8-1.92 2.16-.68.34-1.74.37-2.35.05-.52-.27-1.87-1.49-1.87-1.7 0-.07.93-1.12 2.06-2.32l2.06-2.19.67.62c.37.34.83.83 1.02 1.09ZM56.2 35.79c-5.14.91-9.96 3.64-13.35 7.58-.59.69-1.08 1.31-1.08 1.37 0 .06 8.2.11 18.23.11 10.03 0 18.23-.05 18.23-.11 0-.3-2.39-2.84-3.69-3.91-3.33-2.77-7.14-4.5-11.23-5.11-2.06-.31-5.16-.28-7.11.07ZM35.27 47.78c-1.68.17-2.86.51-4.44 1.27-1.2.57-1.57.85-2.7 2-1.5 1.52-2.33 2.96-2.87 4.99-.43 1.6-.46 5.06-.06 6.58 1.02 3.92 3.64 6.75 7.45 8.06 1.04.36 1.43.41 3.57.46 2.05.05 2.64.02 3.93-.25 1.72-.36 2.84-.78 4.1-1.54l.87-.54v-9.33h-7.58v1.38c0 1.79.05 1.83 2.14 1.83.83 0 1.51.05 1.51.11l.02 2.09.02 1.97-1.2.41c-3.14 1.07-6.47.48-8.47-1.51-3.65-3.61-2.83-11.34 1.43-13.51 1.13-.57 2.27-.82 3.82-.82 1.77 0 2.76.26 4.6 1.18 1.84.92 1.96.89 2.98-.68.4-.62.73-1.16.73-1.21-.01-.22-1.63-1.28-2.84-1.86-1.97-.94-4.48-1.32-7.01-1.08ZM49.1 59.44l.03 11.52 1.86.04 1.86.04.04-8.27.04-8.27 3.51 6.53c2.34 4.38 3.64 6.64 3.91 6.85.56.41 1.95.42 2.5 0 .25-.19 1.58-2.53 3.84-6.79l3.45-6.49.04 8.21.03 8.22H74V47.92h-1.96c-1.83 0-1.98.03-2.33.33-.35.32-6.35 11.42-7.56 13.98l-.57 1.22-.48-1.07c-.26-.59-2.05-4-3.98-7.58-2.46-4.58-3.6-6.56-3.85-6.69-.22-.12-1.03-.18-2.28-.18l-1.93-.01.04 11.52Zm29.64-11.35c-.04.11-.05 5.3-.03 11.53l.03 11.34 2.15.04 2.16.04v-8.2h2.51c3.78 0 5.66-.55 7.43-2.18 2.76-2.53 2.9-7.72.27-10.35-.9-.91-2.1-1.56-3.6-1.97-1.03-.28-1.62-.32-5.99-.38-3.98-.05-4.86-.03-4.93.13Zm9.56 3.49c1.66.62 2.35 1.6 2.45 3.45.1 2.01-.51 3.24-1.99 3.97-.79.38-.94.41-3.27.45l-2.44.05v-8.25l2.37.07c1.41.05 2.57.15 2.88.26Zm-76.02 3.69-.8 2.52-2.74.08-2.74.07 2.2 1.57c2.13 1.53 2.19 1.59 2.06 1.98-1.01 3.08-1.47 4.6-1.41 4.66.04.04 1.03-.63 2.2-1.48l2.13-1.56 2.18 1.62c1.21.89 2.19 1.56 2.19 1.49 0-.06-.35-1.23-.79-2.58-.44-1.36-.77-2.51-.74-2.56.04-.05 1.02-.78 2.19-1.62l2.12-1.52-2.73-.07-2.74-.08-.8-2.52c-.45-1.38-.85-2.52-.89-2.52-.05 0-.45 1.13-.89 2.52Zm93.66 0-.8 2.52-2.75.08-2.75.07 2.2 1.58c1.21.86 2.17 1.65 2.14 1.75-.03.1-.39 1.22-.81 2.49-.41 1.27-.72 2.35-.68 2.39.04.04 1.03-.62 2.2-1.48l2.13-1.56 2.13 1.56c1.17.86 2.16 1.52 2.2 1.48.04-.04-.26-1.12-.68-2.39-.41-1.27-.78-2.39-.81-2.49-.03-.1.93-.89 2.14-1.75l2.2-1.58-2.75-.07-2.74-.08-.8-2.52c-.44-1.39-.84-2.52-.89-2.52-.04 0-.44 1.13-.88 2.52ZM8.86 74.3c-.04.11-.06.48-.03.81l.05.61 3.71.03 3.72.03.09 1.61c.05.88.17 1.9.27 2.26.66 2.34 2.65 4.64 5.13 5.92l1.39.72.17 1.19c.71 4.92 3.83 8.03 8.76 8.72l1.13.16.71 1.41c.58 1.13.97 1.66 1.98 2.69 1.05 1.06 1.45 1.36 2.48 1.84.68.32 1.58.65 2.01.74 1.04.22 3.54.19 4.64-.04l.89-.19.6.69c1.09 1.27 3.17 2.64 4.82 3.16.37.11 1.29.25 2.06.3 1.74.1 3.27-.25 5.2-1.2l1.33-.66 1.51.72c.83.39 1.98.82 2.56.95 3.25.72 6.31-.25 8.93-2.84l1.11-1.1.8.17c1.19.25 3.86.24 4.89-.02 2.8-.72 5.22-2.86 6.61-5.87l.34-.74 1.17-.17c2.46-.35 4.93-1.55 6.24-3.05 1.33-1.51 2.19-3.49 2.51-5.74l.16-1.17.92-.43c1.93-.9 3.76-2.48 4.65-4.02.81-1.39 1.13-2.51 1.21-4.33l.07-1.69 3.7.01h3.7V74.1H79.58l-.36.55c-.68 1.02-2.54 3.03-3.77 4.07-3.19 2.71-6.74 4.47-10.74 5.33-1.82.39-5.88.55-7.65.3-6.3-.9-11.93-4.1-15.66-8.91l-1.02-1.32-15.72-.01c-13.27-.01-15.73.02-15.8.19Zm32.91-.09c0 .3 2.39 2.84 3.69 3.92 3.38 2.8 7.15 4.5 11.37 5.12 2.09.31 5.68.22 7.62-.2 3.88-.84 7.28-2.54 10.41-5.19 1.06-.9 3.21-3.23 3.35-3.62.03-.09-7.01-.14-18.2-.14-10.03 0-18.24.05-18.24.11ZM38 76.05c-.11.65.3 1.71.94 2.43.76.84 1.67 1.25 2.52 1.14.5-.07.56-.05.49.2-.04.16.01.59.12.97.47 1.69 2.74 2.84 4.26 2.17.19-.09.25-.05.25.2 0 .51.54 1.42 1.09 1.84 1.06.81 2.32 1 3.4.51.59-.27.63-.27.72-.04.18.54.81 1.22 1.4 1.53.46.24.87.32 1.66.33.94 0 1.11-.04 1.69-.46l.66-.46.31.43c1.06 1.44 3.94 1.43 4.97-.02l.32-.46.32.3c1.36 1.28 4.16.77 4.96-.92l.24-.51.68.3c1.71.76 4-.4 4.36-2.19.08-.37.15-.46.33-.38.13.06.52.14.85.17 1.68.17 3.41-1.32 3.46-2.98l.01-.6.55.07c1.65.22 3.63-1.83 3.43-3.55-.04-.29.06-.29 7.88-.32l7.93-.04-.1.33c-.23.73-2.05 4.14-3.07 5.75-1.66 2.61-3.27 4.6-5.6 6.93-6.4 6.41-13.9 10.17-23.2 11.63-2.35.37-7.75.45-10.26.16-7.86-.91-14.63-3.64-20.83-8.37-1.88-1.43-5.56-5.09-6.97-6.93a44.67 44.67 0 0 1-4.34-6.82c-.57-1.11-1.07-2.17-1.12-2.34l-.1-.32 7.92.03c7.65.02 7.92.03 7.87.29Zm-2.58 4.24c-.95.32-1.45.63-2.16 1.35-.92.94-1.32 1.81-1.39 3.03-.05.89 0 1.1.41 1.95.74 1.51 2.25 2.54 3.71 2.54h.54l-.04-.6c-.05-.59-.07-.62-.73-.78-1.44-.37-2.42-1.64-2.27-2.96.16-1.37 1.57-2.84 2.94-3.05 1.23-.18 2.68.81 3.05 2.1.21.73.48.88 1.21.69.46-.11.46-.64-.01-1.64-.91-1.97-3.44-3.23-5.26-2.63Zm46.72.16c-.79.31-1.37.74-2.89 2.17l-1.37 1.28.52.55c.29.3 1.62 1.73 2.97 3.18 1.35 1.44 2.54 2.63 2.64 2.63.36 0 3.21-2.93 3.56-3.67.5-1.02.55-2.24.15-3.32-.37-.98-1.38-2.1-2.35-2.6-.81-.41-2.44-.52-3.23-.22Zm2.15 1.6c1.28.6 2.11 1.82 2.11 3.1 0 .86-.14 1.12-1.21 2.21l-.88.91-1.32-1.42c-.73-.78-1.69-1.8-2.12-2.26l-.79-.85.64-.66c.71-.72 1.88-1.38 2.46-1.37.21 0 .71.15 1.11.34Zm-42.56 2.24c-1.48 2.37-4.19 6.9-4.19 7.01 0 .1 4.24 2.78 4.67 2.95.14.06.75-.98.65-1.13-.04-.07-.76-.53-1.6-1.03-.85-.5-1.53-.98-1.53-1.06 0-.12.89-1.72 1.11-2 .02-.03.61.28 1.3.7.69.41 1.31.75 1.37.75.07 0 .26-.23.42-.51l.3-.51-1.27-.76c-.69-.41-1.29-.78-1.32-.8-.03-.02.22-.51.56-1.08l.61-1.04.68.4c.38.22 1.14.69 1.7 1.03l1.02.64.32-.54c.18-.3.3-.59.26-.65-.04-.07-.97-.66-2.07-1.32-1.1-.66-2.15-1.29-2.32-1.41-.3-.19-.35-.16-.67.36Zm33.45 1.09c-1.24.71-2.32 1.35-2.39 1.43-.09.09.61 1.47 1.95 3.84 1.15 2.04 2.13 3.76 2.19 3.83.08.09 4.5-2.26 4.92-2.62.09-.08-.57-1.25-.67-1.19-.06.03-.81.46-1.66.96-.86.49-1.6.9-1.64.9-.09 0-1.29-2.06-1.23-2.11.03-.02.61-.35 1.29-.74s1.26-.72 1.28-.74c.1-.08-.47-1.09-.61-1.09-.09 0-.72.33-1.4.72-.68.4-1.24.71-1.26.69-.01-.01-.29-.48-.61-1.04l-.59-1.02 1.63-.93c.9-.51 1.65-.96 1.69-.99.09-.09-.28-.92-.47-1.06-.11-.08-.99.34-2.42 1.16Zm-28.16 2.5c-.95 2.77-2.48 7.34-2.48 7.42 0 .06.27.18.6.28.33.1.68.22.78.26.13.05.36-.44.73-1.56.54-1.6.55-1.63.93-1.54.21.05.46.17.56.27.09.1.37.96.62 1.93.31 1.18.56 1.83.76 2.01.29.24 1.41.62 1.52.51.06-.06-.89-3.54-1.09-4-.13-.29-.08-.32.41-.4 1.17-.19 2-1.11 2.14-2.39.16-1.43-.77-2.3-3.4-3.18-.86-.29-1.61-.52-1.67-.52-.05 0-.24.41-.41.91Zm23.53-.3-.75.3.36.97c.21.53.9 2.38 1.54 4.11.64 1.73 1.19 3.17 1.22 3.2.09.1 1.52-.48 1.52-.62 0-.19-2.93-8.03-3.04-8.15-.05-.06-.43.03-.85.19Zm-4.39 1.25c-2 .41-2.51.57-2.51.75-.01.24 1.62 8.38 1.69 8.48.05.07 1.3-.14 1.49-.26.13-.08.11-.44-.1-1.48-.48-2.34-.61-2.05 1.15-2.41l1.53-.3-.03-.63c-.02-.35-.06-.66-.09-.69-.03-.03-.75.09-1.6.27-.85.18-1.58.29-1.63.24-.1-.1-.56-2.33-.49-2.39.02-.03.86-.23 1.86-.44s1.84-.4 1.87-.43c.02-.03 0-.32-.05-.65-.07-.43-.17-.6-.33-.59-.13.01-1.37.25-2.76.53Zm-16.41.28c.7.3 1.06.76 1.06 1.38 0 .69-.45 1.27-1.08 1.38-.57.11-2.17-.34-2.08-.58.03-.08.24-.7.46-1.36.45-1.33.43-1.32 1.64-.82Zm3.25-.08c0 .11-.04.44-.09.74l-.09.53 1.16.1c.64.06 1.24.16 1.34.22.15.09.11.8-.19 3.53-.21 1.88-.38 3.53-.38 3.66 0 .18.19.27.74.35.4.05.78.06.83.01.05-.05.27-1.71.49-3.69.22-1.98.43-3.62.46-3.65.03-.03.6.01 1.27.09 1.37.18 1.45.13 1.46-.74v-.52l-3.1-.34c-1.7-.18-3.28-.37-3.5-.41-.28-.05-.4-.02-.4.12Zm7.58.68c0 .76.31 7.24.38 7.9l.08.76h1.59v-.69c0-.38-.08-2.39-.17-4.46l-.18-3.77h-.85c-.71 0-.85.05-.85.26Z"/></svg>