<svg xmlns="http://www.w3.org/2000/svg" width="128" height="128" viewBox="0 0 120 120"><path id="Imported Path" fill="#7681B0" stroke="#7681B0" stroke-width="1" d="m49.48 89.8-1.81-.91c-.47-.23-.89-.53-1.28-.87H30.91a1.92 1.92 0 0 1-1.92-1.92V18.03c0-1.06.86-1.92 1.92-1.92h51.52c1.06 0 1.92.86 1.92 1.92v35.11c.86.2 1.68.58 2.39 1.11 1.41 1 2.38 2.6 2.64 4.35l.08-40.56c0-3.88-3.15-7.04-7.03-7.04H30.91c-3.88 0-7.04 3.16-7.04 7.04v68.07c0 3.88 3.17 7.04 7.04 7.04h15.22l3.35-3.35Zm14.73-43.08H37.47c-.96 0-1.74.61-1.74 1.37 0 .76.78 1.38 1.74 1.38h26.74c.96 0 1.74-.62 1.74-1.38 0-.76-.78-1.37-1.74-1.37Zm0-5.5H37.47c-.96 0-1.74.62-1.74 1.37 0 .76.78 1.38 1.74 1.38h26.74c.96 0 1.74-.61 1.74-1.37 0-.76-.78-1.38-1.74-1.38Zm11.22-16.48H38.16c-1.34 0-2.43.61-2.43 1.37 0 .76 1.08 1.38 2.43 1.38h37.27c1.34 0 2.43-.62 2.43-1.38 0-.76-1.09-1.37-2.43-1.37Zm0 5.49H38.16c-1.34 0-2.43.62-2.43 1.37 0 .76 1.08 1.38 2.43 1.38h37.27c1.34 0 2.43-.61 2.43-1.37 0-.76-1.09-1.38-2.43-1.38Zm-11.22 5.5H37.47c-.96 0-1.74.61-1.74 1.37 0 .76.78 1.38 1.74 1.38h26.74c.96 0 1.74-.62 1.74-1.38 0-.76-.78-1.37-1.74-1.37Zm-.71 61.56-4.52.73c-1.27.2-2.5-.1-3.5-.84a4.631 4.631 0 0 1-1.85-3.07l-.4-2.63-7.85 7.85c-.39.39-.54.97-.38 1.5.17.53.62.92 1.15 1.03l4.99.93.94 4.99c.1.55.49.99 1.02 1.15.53.16 1.11.02 1.5-.37L64.85 98.3l-.75-.76a.857.857 0 0 0-.6-.25Zm32.18 2.04-7.86-7.85-.39 2.65a4.682 4.682 0 0 1-1.87 3.06 4.57 4.57 0 0 1-3.48.83l-4.39-.71c-.36-.03-.58.07-.74.24l-.75.75 10.26 10.26c.4.39.97.53 1.5.37.53-.16.92-.6 1.03-1.15l.93-4.98 4.99-.94c.55-.1.99-.49 1.15-1.03.16-.53.01-1.11-.38-1.5ZM70.53 61.64c-7.96 0-14.44 6.47-14.44 14.42 0 7.96 6.48 14.43 14.44 14.43 7.96 0 14.43-6.47 14.43-14.43 0-7.95-6.47-14.42-14.43-14.42Zm11.85 34.53c.73.12 1.48-.06 2.08-.5.59-.43 1.01-1.09 1.11-1.83l.66-4.38c.14-.88.69-1.62 1.48-2.03l3.96-1.98c.68-.34 1.18-.92 1.4-1.62.24-.71.16-1.48-.17-2.14l-2.04-3.95c-.41-.77-.41-1.71 0-2.49l2.04-3.94c.33-.67.4-1.43.17-2.14-.23-.71-.73-1.29-1.4-1.63l-3.96-1.98c-.79-.4-1.34-1.15-1.48-2.03l-.66-4.38c-.1-.73-.52-1.39-1.11-1.82-.6-.45-1.35-.63-2.08-.5l-4.39.73c-.87.14-1.75-.15-2.37-.77l-3.11-3.17c-.53-.52-1.24-.82-1.98-.82s-1.46.3-1.98.82l-3.12 3.17c-.62.63-1.5.91-2.37.77l-4.38-.72c-.73-.12-1.48.06-2.08.5-.6.43-1.01 1.09-1.12 1.82l-.65 4.38c-.14.88-.69 1.63-1.48 2.03l-3.97 1.98c-.66.34-1.17.92-1.39 1.63-.23.71-.17 1.47.17 2.14l2.04 3.94c.4.78.4 1.72 0 2.49l-2.04 3.95a2.803 2.803 0 0 0 1.22 3.77l3.97 1.98c.79.4 1.34 1.15 1.48 2.03l.65 4.37c.11.74.52 1.4 1.12 1.83.6.44 1.34.62 2.08.5l4.38-.72c.87-.15 1.75.14 2.37.77l3.12 3.16c.52.54 1.24.83 1.98.83s1.45-.29 1.98-.83l3.11-3.16a2.69 2.69 0 0 1 2.37-.77l4.39.71Zm-11.86-3.19c-9.31 0-16.89-7.58-16.89-16.89S61.21 59.2 70.52 59.2c9.32 0 16.89 7.58 16.89 16.89s-7.57 16.89-16.89 16.89Z"/></svg>