<?xml version="1.0" encoding="UTF-8" standalone="no"?>
<!DOCTYPE svg PUBLIC "-//W3C//DTD SVG 20010904//EN"
              "http://www.w3.org/TR/2001/REC-SVG-20010904/DTD/svg10.dtd">

<svg xmlns="http://www.w3.org/2000/svg" width="1.33333in" height="1.33333in" viewBox="0 0 120 120">
  <path id="Imported Path" fill="#7681B0" stroke="#7681B0" stroke-width="1" d="M 51.78,12.17
           C 49.99,12.63 47.65,14.11 46.44,15.56
             46.44,15.56 45.96,16.13 45.96,16.13
             45.96,16.13 45.07,15.94 45.07,15.94
             43.79,15.67 41.25,15.69 40.15,15.98
             37.48,16.67 35.36,18.47 33.94,21.25
             33.94,21.25 33.26,22.57 33.26,22.57
             33.26,22.57 32.06,22.75 32.06,22.75
             29.59,23.11 27.68,24.01 26.15,25.54
             24.62,27.08 23.72,28.98 23.36,31.48
             23.36,31.48 23.19,32.69 23.19,32.69
             23.19,32.69 22.16,33.18 22.16,33.18
             20.04,34.19 18.37,35.73 17.42,37.54
             16.66,39.00 16.39,40.13 16.39,41.84
             16.39,41.84 16.39,43.24 16.39,43.24
             16.39,43.24 12.59,43.24 12.59,43.24
             12.59,43.24 8.79,43.24 8.79,43.24
             8.79,43.24 8.83,44.01 8.83,44.01
             8.83,44.01 8.88,44.78 8.88,44.78
             8.88,44.78 24.63,44.81 24.63,44.81
             24.63,44.81 40.38,44.85 40.38,44.85
             40.38,44.85 40.96,44.02 40.96,44.02
             41.87,42.72 44.76,39.91 46.29,38.82
             48.85,37.01 52.16,35.55 55.26,34.88
             56.95,34.51 61.14,34.36 62.99,34.61
             69.07,35.40 74.89,38.73 78.60,43.51
             78.60,43.51 79.62,44.83 79.62,44.83
             79.62,44.83 95.34,44.84 95.34,44.84
             95.34,44.84 111.05,44.85 111.05,44.85
             111.05,44.85 111.05,44.05 111.05,44.05
             111.05,44.05 111.05,43.24 111.05,43.24
             111.05,43.24 107.33,43.24 107.33,43.24
             107.33,43.24 103.61,43.24 103.61,43.24
             103.61,43.24 103.61,41.94 103.61,41.94
             103.61,40.24 103.42,39.36 102.72,37.84
             102.24,36.81 101.94,36.40 100.87,35.35
             99.85,34.34 99.33,33.95 98.20,33.37
             98.20,33.37 96.79,32.66 96.79,32.66
             96.79,32.66 96.64,31.53 96.64,31.53
             95.94,26.58 92.84,23.46 87.93,22.75
             87.93,22.75 86.74,22.57 86.74,22.57
             86.74,22.57 86.03,21.17 86.03,21.17
             85.46,20.05 85.07,19.52 84.07,18.51
             82.72,17.14 81.50,16.40 79.88,15.98
             78.83,15.71 75.91,15.69 74.82,15.95
             74.82,15.95 74.10,16.12 74.10,16.12
             74.10,16.12 72.98,15.02 72.98,15.02
             71.77,13.82 70.29,12.87 68.86,12.36
             68.11,12.09 67.63,12.03 66.13,12.03
             64.06,12.02 63.15,12.25 61.13,13.27
             61.13,13.27 59.99,13.85 59.99,13.85
             59.99,13.85 58.87,13.28 58.87,13.28
             57.03,12.35 56.05,12.08 54.24,12.01
             53.13,11.97 52.37,12.02 51.78,12.17 Z
           M 65.69,18.60
           C 68.20,18.96 70.46,19.50 73.07,20.36
             82.09,23.36 89.69,29.31 94.76,37.36
             95.62,38.73 97.78,42.84 97.78,43.11
             97.78,43.19 94.52,43.24 89.87,43.24
             89.87,43.24 81.95,43.24 81.95,43.24
             81.95,43.24 81.94,42.55 81.94,42.55
             81.93,42.15 81.80,41.60 81.62,41.25
             81.00,40.05 79.45,39.13 78.43,39.36
             78.02,39.45 78.01,39.44 78.00,38.80
             77.96,36.82 75.58,35.28 73.68,36.01
             73.54,36.06 73.43,35.88 73.31,35.42
             72.83,33.65 70.13,32.55 68.75,33.57
             68.75,33.57 68.35,33.87 68.35,33.87
             68.35,33.87 68.08,33.28 68.08,33.28
             67.76,32.56 67.10,32.03 66.18,31.75
             64.99,31.39 63.97,31.56 63.24,32.25
             63.24,32.25 62.81,32.65 62.81,32.65
             62.81,32.65 62.51,32.19 62.51,32.19
             61.55,30.72 58.45,30.72 57.49,32.19
             57.49,32.19 57.19,32.65 57.19,32.65
             57.19,32.65 56.78,32.26 56.78,32.26
             55.46,31.03 52.75,31.58 51.92,33.24
             51.92,33.24 51.61,33.85 51.61,33.85
             51.61,33.85 51.20,33.54 51.20,33.54
             50.59,33.08 49.22,33.11 48.27,33.59
             47.46,34.00 46.78,34.84 46.64,35.59
             46.56,36.02 46.51,36.07 46.24,35.97
             46.06,35.91 45.55,35.86 45.10,35.87
             44.44,35.88 44.12,35.97 43.57,36.31
             42.66,36.87 41.99,37.92 41.99,38.80
             41.99,39.44 41.98,39.44 41.54,39.36
             39.97,39.06 38.09,40.79 38.06,42.55
             38.06,42.55 38.05,43.24 38.05,43.24
             38.05,43.24 30.12,43.24 30.12,43.24
             30.12,43.24 22.20,43.24 22.20,43.24
             22.20,43.24 22.30,42.92 22.30,42.92
             22.53,42.18 24.34,38.77 25.37,37.16
             27.02,34.57 28.63,32.58 30.97,30.22
             35.59,25.58 41.01,22.26 47.25,20.24
             50.27,19.27 53.01,18.71 56.57,18.33
             57.92,18.19 64.08,18.37 65.69,18.60 Z
           M 55.26,20.80
           C 53.82,20.99 52.48,21.14 52.29,21.15
             51.96,21.16 51.94,21.21 52.01,21.83
             52.06,22.19 52.11,22.51 52.14,22.54
             52.17,22.56 52.74,22.52 53.41,22.44
             54.08,22.37 54.66,22.34 54.71,22.39
             54.78,22.47 55.59,28.90 55.62,29.61
             55.62,29.73 55.82,29.76 56.32,29.70
             56.70,29.66 57.08,29.60 57.17,29.57
             57.28,29.54 57.20,28.43 56.92,26.04
             56.70,24.12 56.51,22.45 56.51,22.32
             56.50,22.13 56.76,22.05 57.75,21.93
             58.43,21.85 59.03,21.75 59.07,21.70
             59.12,21.66 59.11,21.35 59.05,21.03
             58.96,20.45 58.93,20.43 58.42,20.45
             58.13,20.46 56.70,20.62 55.26,20.80 Z
           M 60.83,22.44
           C 60.77,23.47 60.69,25.48 60.63,26.90
             60.63,26.90 60.54,29.50 60.54,29.50
             60.54,29.50 61.35,29.50 61.35,29.50
             61.35,29.50 62.17,29.50 62.17,29.50
             62.17,29.50 62.25,28.73 62.25,28.73
             62.29,28.31 62.36,26.94 62.40,25.70
             62.45,24.45 62.52,22.79 62.57,22.00
             62.57,22.00 62.66,20.58 62.66,20.58
             62.66,20.58 61.79,20.58 61.79,20.58
             61.79,20.58 60.92,20.58 60.92,20.58
             60.92,20.58 60.83,22.44 60.83,22.44 Z
           M 65.20,21.13
           C 65.09,21.51 63.66,28.78 63.61,29.19
             63.58,29.50 63.66,29.56 64.34,29.72
             64.77,29.82 65.14,29.86 65.17,29.81
             65.20,29.76 65.37,28.98 65.55,28.07
             65.93,26.17 65.76,26.27 67.79,26.72
             68.51,26.88 69.11,26.99 69.13,26.97
             69.16,26.95 69.24,26.65 69.31,26.30
             69.42,25.85 69.41,25.66 69.29,25.63
             69.19,25.60 68.49,25.46 67.73,25.32
             66.97,25.18 66.30,25.05 66.26,25.02
             66.16,24.97 66.59,22.70 66.72,22.56
             66.77,22.51 67.59,22.64 68.54,22.84
             69.49,23.05 70.35,23.21 70.44,23.21
             70.60,23.21 70.87,22.07 70.75,21.95
             70.68,21.88 65.71,20.87 65.45,20.87
             65.35,20.87 65.24,20.99 65.20,21.13 Z
           M 47.97,22.48
           C 46.98,22.70 44.46,23.61 44.49,23.74
             44.60,24.26 47.20,31.78 47.30,31.88
             47.40,31.99 48.91,31.62 48.91,31.50
             48.91,31.48 48.68,30.83 48.40,30.04
             48.12,29.25 47.89,28.52 47.89,28.41
             47.89,28.30 48.09,28.14 48.32,28.06
             48.82,27.89 48.99,27.98 50.88,29.49
             51.55,30.02 52.12,30.37 52.26,30.33
             52.38,30.29 52.80,30.18 53.18,30.07
             53.56,29.96 53.87,29.84 53.87,29.80
             53.86,29.73 50.88,27.47 50.38,27.17
             50.24,27.07 50.27,26.97 50.51,26.72
             51.27,25.96 51.45,24.74 50.95,23.70
             50.45,22.67 49.29,22.20 47.97,22.48 Z
           M 72.70,23.10
           C 70.65,28.51 69.78,31.02 69.93,31.11
             70.34,31.37 71.25,31.59 71.36,31.46
             71.46,31.35 74.44,23.45 74.44,23.29
             74.44,23.23 73.13,22.77 72.95,22.77
             72.88,22.77 72.77,22.92 72.70,23.10 Z
           M 49.22,24.22
           C 50.09,25.10 49.59,26.33 48.17,26.80
             47.77,26.93 47.42,27.02 47.39,26.99
             47.31,26.89 46.58,24.59 46.58,24.42
             46.58,24.22 47.75,23.82 48.38,23.81
             48.65,23.80 48.94,23.94 49.22,24.22 Z
           M 75.24,27.26
           C 74.36,28.84 73.40,30.57 73.10,31.10
             73.10,31.10 72.56,32.06 72.56,32.06
             72.56,32.06 74.94,33.41 74.94,33.41
             76.25,34.16 77.36,34.76 77.41,34.76
             77.52,34.76 78.09,33.88 78.09,33.72
             78.09,33.66 77.35,33.21 76.45,32.70
             75.54,32.20 74.79,31.77 74.76,31.76
             74.69,31.71 75.77,29.80 75.92,29.71
             75.99,29.66 76.59,29.93 77.25,30.31
             77.91,30.69 78.50,31.03 78.56,31.06
             78.61,31.09 78.79,30.86 78.95,30.54
             78.95,30.54 79.25,29.96 79.25,29.96
             79.25,29.96 78.78,29.68 78.78,29.68
             78.52,29.52 77.93,29.18 77.47,28.92
             77.01,28.67 76.63,28.42 76.63,28.38
             76.63,28.20 77.73,26.43 77.85,26.43
             77.92,26.43 78.67,26.82 79.51,27.30
             80.35,27.79 81.09,28.18 81.16,28.18
             81.23,28.18 81.42,27.93 81.57,27.63
             81.57,27.63 81.85,27.08 81.85,27.08
             81.85,27.08 81.39,26.81 81.39,26.81
             79.68,25.81 77.07,24.38 76.97,24.38
             76.90,24.39 76.13,25.68 75.24,27.26 Z
           M 39.80,26.15
           C 38.51,26.94 37.48,27.65 37.50,27.74
             37.54,27.88 41.86,35.05 41.99,35.18
             42.04,35.23 43.83,34.17 46.33,32.61
             46.33,32.61 46.87,32.27 46.87,32.27
             46.87,32.27 46.50,31.71 46.50,31.71
             46.50,31.71 46.13,31.14 46.13,31.14
             46.13,31.14 44.45,32.16 44.45,32.16
             43.53,32.73 42.76,33.16 42.74,33.14
             42.72,33.11 42.43,32.64 42.09,32.09
             42.09,32.09 41.49,31.11 41.49,31.11
             41.49,31.11 42.25,30.63 42.25,30.63
             42.66,30.36 43.25,29.99 43.55,29.81
             43.85,29.63 44.10,29.45 44.10,29.42
             44.10,29.39 43.96,29.13 43.79,28.84
             43.51,28.36 43.46,28.33 43.17,28.52
             42.31,29.07 41.09,29.77 40.93,29.82
             40.74,29.87 39.56,28.04 39.67,27.86
             39.71,27.80 40.45,27.32 41.33,26.80
             41.33,26.80 42.92,25.83 42.92,25.83
             42.92,25.83 42.62,25.33 42.62,25.33
             42.46,25.05 42.28,24.79 42.23,24.76
             42.17,24.73 41.08,25.36 39.80,26.15 Z
           M 80.88,31.70
           C 79.25,33.47 77.94,34.98 77.97,35.05
             78.08,35.39 80.98,37.89 81.65,38.24
             83.26,39.07 85.35,38.62 86.69,37.16
             87.59,36.18 87.93,35.34 87.92,34.10
             87.91,32.59 87.54,31.94 85.60,30.05
             84.72,29.19 83.96,28.48 83.92,28.49
             83.88,28.49 82.51,29.94 80.88,31.70 Z
           M 34.62,30.02
           C 33.57,30.51 32.54,31.62 32.13,32.69
             31.32,34.84 32.40,37.28 34.66,38.41
             35.81,38.99 37.09,39.03 38.19,38.51
             39.23,38.03 40.39,36.72 40.68,35.70
             41.01,34.58 40.94,34.41 40.20,34.35
             39.63,34.31 39.58,34.34 39.50,34.72
             39.26,35.80 38.50,36.77 37.64,37.09
             36.58,37.49 35.34,37.10 34.42,36.09
             33.41,34.96 33.20,33.91 33.76,32.75
             34.12,32.02 35.00,31.30 35.73,31.17
             36.37,31.05 36.52,30.83 36.42,30.18
             36.34,29.70 36.29,29.64 35.88,29.65
             35.63,29.65 35.06,29.82 34.62,30.02 Z
           M 85.94,32.37
           C 86.36,32.94 86.50,33.95 86.27,34.66
             86.04,35.34 85.05,36.46 84.35,36.82
             83.67,37.16 82.61,37.19 82.00,36.87
             81.48,36.60 80.13,35.38 80.13,35.17
             80.13,35.10 81.06,34.05 82.19,32.85
             82.19,32.85 84.25,30.66 84.25,30.66
             84.25,30.66 84.92,31.28 84.92,31.28
             85.29,31.62 85.75,32.11 85.94,32.37 Z
           M 56.20,35.79
           C 51.06,36.70 46.24,39.43 42.85,43.37
             42.26,44.06 41.77,44.68 41.77,44.74
             41.77,44.80 49.97,44.85 60.00,44.85
             70.03,44.85 78.23,44.80 78.23,44.74
             78.23,44.44 75.84,41.90 74.54,40.83
             71.21,38.06 67.40,36.33 63.31,35.72
             61.25,35.41 58.15,35.44 56.20,35.79 Z
           M 35.27,47.78
           C 33.59,47.95 32.41,48.29 30.83,49.05
             29.63,49.62 29.26,49.90 28.13,51.05
             26.63,52.57 25.80,54.01 25.26,56.04
             24.83,57.64 24.80,61.10 25.20,62.62
             26.22,66.54 28.84,69.37 32.65,70.68
             33.69,71.04 34.08,71.09 36.22,71.14
             38.27,71.19 38.86,71.16 40.15,70.89
             41.87,70.53 42.99,70.11 44.25,69.35
             44.25,69.35 45.12,68.81 45.12,68.81
             45.12,68.81 45.12,64.15 45.12,64.15
             45.12,64.15 45.12,59.48 45.12,59.48
             45.12,59.48 41.33,59.48 41.33,59.48
             41.33,59.48 37.54,59.48 37.54,59.48
             37.54,59.48 37.54,60.86 37.54,60.86
             37.54,62.65 37.59,62.69 39.68,62.69
             40.51,62.69 41.19,62.74 41.19,62.80
             41.19,62.86 41.20,63.80 41.21,64.89
             41.21,64.89 41.23,66.86 41.23,66.86
             41.23,66.86 40.03,67.27 40.03,67.27
             36.89,68.34 33.56,67.75 31.56,65.76
             27.91,62.15 28.73,54.42 32.99,52.25
             34.12,51.68 35.26,51.43 36.81,51.43
             38.58,51.43 39.57,51.69 41.41,52.61
             43.25,53.53 43.37,53.50 44.39,51.93
             44.79,51.31 45.12,50.77 45.12,50.72
             45.11,50.50 43.49,49.44 42.28,48.86
             40.31,47.92 37.80,47.54 35.27,47.78 Z
           M 49.10,59.44
           C 49.10,59.44 49.13,70.96 49.13,70.96
             49.13,70.96 50.99,71.00 50.99,71.00
             50.99,71.00 52.85,71.04 52.85,71.04
             52.85,71.04 52.89,62.77 52.89,62.77
             52.89,62.77 52.93,54.50 52.93,54.50
             52.93,54.50 56.44,61.03 56.44,61.03
             58.78,65.41 60.08,67.67 60.35,67.88
             60.91,68.29 62.30,68.30 62.85,67.88
             63.10,67.69 64.43,65.35 66.69,61.09
             66.69,61.09 70.14,54.60 70.14,54.60
             70.14,54.60 70.18,62.81 70.18,62.81
             70.18,62.81 70.21,71.03 70.21,71.03
             70.21,71.03 72.11,71.03 72.11,71.03
             72.11,71.03 74.00,71.03 74.00,71.03
             74.00,71.03 74.00,59.48 74.00,59.48
             74.00,59.48 74.00,47.92 74.00,47.92
             74.00,47.92 72.04,47.92 72.04,47.92
             70.21,47.92 70.06,47.95 69.71,48.25
             69.36,48.57 63.36,59.67 62.15,62.23
             62.15,62.23 61.58,63.45 61.58,63.45
             61.58,63.45 61.10,62.38 61.10,62.38
             60.84,61.79 59.05,58.38 57.12,54.80
             54.66,50.22 53.52,48.24 53.27,48.11
             53.05,47.99 52.24,47.93 50.99,47.93
             50.99,47.93 49.06,47.92 49.06,47.92
             49.06,47.92 49.10,59.44 49.10,59.44 Z
           M 78.74,48.09
           C 78.70,48.20 78.69,53.39 78.71,59.62
             78.71,59.62 78.74,70.96 78.74,70.96
             78.74,70.96 80.89,71.00 80.89,71.00
             80.89,71.00 83.05,71.04 83.05,71.04
             83.05,71.04 83.05,66.94 83.05,66.94
             83.05,66.94 83.05,62.84 83.05,62.84
             83.05,62.84 85.56,62.84 85.56,62.84
             89.34,62.84 91.22,62.29 92.99,60.66
             95.75,58.13 95.89,52.94 93.26,50.31
             92.36,49.40 91.16,48.75 89.66,48.34
             88.63,48.06 88.04,48.02 83.67,47.96
             79.69,47.91 78.81,47.93 78.74,48.09 Z
           M 88.30,51.58
           C 89.96,52.20 90.65,53.18 90.75,55.03
             90.85,57.04 90.24,58.27 88.76,59.00
             87.97,59.38 87.82,59.41 85.49,59.45
             85.49,59.45 83.05,59.50 83.05,59.50
             83.05,59.50 83.05,55.38 83.05,55.38
             83.05,55.38 83.05,51.25 83.05,51.25
             83.05,51.25 85.42,51.32 85.42,51.32
             86.83,51.37 87.99,51.47 88.30,51.58 Z
           M 12.28,55.27
           C 12.28,55.27 11.48,57.79 11.48,57.79
             11.48,57.79 8.74,57.87 8.74,57.87
             8.74,57.87 6.00,57.94 6.00,57.94
             6.00,57.94 8.20,59.51 8.20,59.51
             10.33,61.04 10.39,61.10 10.26,61.49
             9.25,64.57 8.79,66.09 8.85,66.15
             8.89,66.19 9.88,65.52 11.05,64.67
             11.05,64.67 13.18,63.11 13.18,63.11
             13.18,63.11 15.36,64.73 15.36,64.73
             16.57,65.62 17.55,66.29 17.55,66.22
             17.55,66.16 17.20,64.99 16.76,63.64
             16.32,62.28 15.99,61.13 16.02,61.08
             16.06,61.03 17.04,60.30 18.21,59.46
             18.21,59.46 20.33,57.94 20.33,57.94
             20.33,57.94 17.60,57.87 17.60,57.87
             17.60,57.87 14.86,57.79 14.86,57.79
             14.86,57.79 14.06,55.27 14.06,55.27
             13.61,53.89 13.21,52.75 13.17,52.75
             13.12,52.75 12.72,53.88 12.28,55.27 Z
           M 105.94,55.27
           C 105.94,55.27 105.14,57.79 105.14,57.79
             105.14,57.79 102.39,57.87 102.39,57.87
             102.39,57.87 99.64,57.94 99.64,57.94
             99.64,57.94 101.84,59.52 101.84,59.52
             103.05,60.38 104.01,61.17 103.98,61.27
             103.95,61.37 103.59,62.49 103.17,63.76
             102.76,65.03 102.45,66.11 102.49,66.15
             102.53,66.19 103.52,65.53 104.69,64.67
             104.69,64.67 106.82,63.11 106.82,63.11
             106.82,63.11 108.95,64.67 108.95,64.67
             110.12,65.53 111.11,66.19 111.15,66.15
             111.19,66.11 110.89,65.03 110.47,63.76
             110.06,62.49 109.69,61.37 109.66,61.27
             109.63,61.17 110.59,60.38 111.80,59.52
             111.80,59.52 114.00,57.94 114.00,57.94
             114.00,57.94 111.25,57.87 111.25,57.87
             111.25,57.87 108.51,57.79 108.51,57.79
             108.51,57.79 107.71,55.27 107.71,55.27
             107.27,53.88 106.87,52.75 106.82,52.75
             106.78,52.75 106.38,53.88 105.94,55.27 Z
           M 8.86,74.30
           C 8.82,74.41 8.80,74.78 8.83,75.11
             8.83,75.11 8.88,75.72 8.88,75.72
             8.88,75.72 12.59,75.75 12.59,75.75
             12.59,75.75 16.31,75.78 16.31,75.78
             16.31,75.78 16.40,77.39 16.40,77.39
             16.45,78.27 16.57,79.29 16.67,79.65
             17.33,81.99 19.32,84.29 21.80,85.57
             21.80,85.57 23.19,86.29 23.19,86.29
             23.19,86.29 23.36,87.48 23.36,87.48
             24.07,92.40 27.19,95.51 32.12,96.20
             32.12,96.20 33.25,96.36 33.25,96.36
             33.25,96.36 33.96,97.77 33.96,97.77
             34.54,98.90 34.93,99.43 35.94,100.46
             36.99,101.52 37.39,101.82 38.42,102.30
             39.10,102.62 40.00,102.95 40.43,103.04
             41.47,103.26 43.97,103.23 45.07,103.00
             45.07,103.00 45.96,102.81 45.96,102.81
             45.96,102.81 46.56,103.50 46.56,103.50
             47.65,104.77 49.73,106.14 51.38,106.66
             51.75,106.77 52.67,106.91 53.44,106.96
             55.18,107.06 56.71,106.71 58.64,105.76
             58.64,105.76 59.97,105.10 59.97,105.10
             59.97,105.10 61.48,105.82 61.48,105.82
             62.31,106.21 63.46,106.64 64.04,106.77
             67.29,107.49 70.35,106.52 72.97,103.93
             72.97,103.93 74.08,102.83 74.08,102.83
             74.08,102.83 74.88,103.00 74.88,103.00
             76.07,103.25 78.74,103.24 79.77,102.98
             82.57,102.26 84.99,100.12 86.38,97.11
             86.38,97.11 86.72,96.37 86.72,96.37
             86.72,96.37 87.89,96.20 87.89,96.20
             90.35,95.85 92.82,94.65 94.13,93.15
             95.46,91.64 96.32,89.66 96.64,87.41
             96.64,87.41 96.80,86.24 96.80,86.24
             96.80,86.24 97.72,85.81 97.72,85.81
             99.65,84.91 101.48,83.33 102.37,81.79
             103.18,80.40 103.50,79.28 103.58,77.46
             103.58,77.46 103.65,75.77 103.65,75.77
             103.65,75.77 107.35,75.78 107.35,75.78
             107.35,75.78 111.05,75.78 111.05,75.78
             111.05,75.78 111.05,74.94 111.05,74.94
             111.05,74.94 111.05,74.10 111.05,74.10
             111.05,74.10 95.32,74.10 95.32,74.10
             95.32,74.10 79.58,74.10 79.58,74.10
             79.58,74.10 79.22,74.65 79.22,74.65
             78.54,75.67 76.68,77.68 75.45,78.72
             72.26,81.43 68.71,83.19 64.71,84.05
             62.89,84.44 58.83,84.60 57.06,84.35
             50.76,83.45 45.13,80.25 41.40,75.44
             41.40,75.44 40.38,74.12 40.38,74.12
             40.38,74.12 24.66,74.11 24.66,74.11
             11.39,74.10 8.93,74.13 8.86,74.30 Z
           M 41.77,74.21
           C 41.77,74.51 44.16,77.05 45.46,78.13
             48.84,80.93 52.61,82.63 56.83,83.25
             58.92,83.56 62.51,83.47 64.45,83.05
             68.33,82.21 71.73,80.51 74.86,77.86
             75.92,76.96 78.07,74.63 78.21,74.24
             78.24,74.15 71.20,74.10 60.01,74.10
             49.98,74.10 41.77,74.15 41.77,74.21 Z
           M 38.00,76.05
           C 37.89,76.70 38.30,77.76 38.94,78.48
             39.70,79.32 40.61,79.73 41.46,79.62
             41.96,79.55 42.02,79.57 41.95,79.82
             41.91,79.98 41.96,80.41 42.07,80.79
             42.54,82.48 44.81,83.63 46.33,82.96
             46.52,82.87 46.58,82.91 46.58,83.16
             46.58,83.67 47.12,84.58 47.67,85.00
             48.73,85.81 49.99,86.00 51.07,85.51
             51.66,85.24 51.70,85.24 51.79,85.47
             51.97,86.01 52.60,86.69 53.19,87.00
             53.65,87.24 54.06,87.32 54.85,87.33
             55.79,87.33 55.96,87.29 56.54,86.87
             56.54,86.87 57.20,86.41 57.20,86.41
             57.20,86.41 57.51,86.84 57.51,86.84
             58.57,88.28 61.45,88.27 62.48,86.82
             62.48,86.82 62.80,86.36 62.80,86.36
             62.80,86.36 63.12,86.66 63.12,86.66
             64.48,87.94 67.28,87.43 68.08,85.74
             68.08,85.74 68.32,85.23 68.32,85.23
             68.32,85.23 69.00,85.53 69.00,85.53
             70.71,86.29 73.00,85.13 73.36,83.34
             73.44,82.97 73.51,82.88 73.69,82.96
             73.82,83.02 74.21,83.10 74.54,83.13
             76.22,83.30 77.95,81.81 78.00,80.15
             78.00,80.15 78.01,79.55 78.01,79.55
             78.01,79.55 78.56,79.62 78.56,79.62
             80.21,79.84 82.19,77.79 81.99,76.07
             81.95,75.78 82.05,75.78 89.87,75.75
             89.87,75.75 97.80,75.71 97.80,75.71
             97.80,75.71 97.70,76.04 97.70,76.04
             97.47,76.77 95.65,80.18 94.63,81.79
             92.97,84.40 91.36,86.39 89.03,88.72
             82.63,95.13 75.13,98.89 65.83,100.35
             63.48,100.72 58.08,100.80 55.57,100.51
             47.71,99.60 40.94,96.87 34.74,92.14
             32.86,90.71 29.18,87.05 27.77,85.21
             26.14,83.11 24.57,80.63 23.43,78.39
             22.86,77.28 22.36,76.22 22.31,76.05
             22.31,76.05 22.21,75.73 22.21,75.73
             22.21,75.73 30.13,75.76 30.13,75.76
             37.78,75.78 38.05,75.79 38.00,76.05 Z
           M 35.42,80.29
           C 34.47,80.61 33.97,80.92 33.26,81.64
             32.34,82.58 31.94,83.45 31.87,84.67
             31.82,85.56 31.87,85.77 32.28,86.62
             33.02,88.13 34.53,89.16 35.99,89.16
             35.99,89.16 36.53,89.16 36.53,89.16
             36.53,89.16 36.49,88.56 36.49,88.56
             36.44,87.97 36.42,87.94 35.76,87.78
             34.32,87.41 33.34,86.14 33.49,84.82
             33.65,83.45 35.06,81.98 36.43,81.77
             37.66,81.59 39.11,82.58 39.48,83.87
             39.69,84.60 39.96,84.75 40.69,84.56
             41.15,84.45 41.15,83.92 40.68,82.92
             39.77,80.95 37.24,79.69 35.42,80.29 Z
           M 82.14,80.45
           C 81.35,80.76 80.77,81.19 79.25,82.62
             79.25,82.62 77.88,83.90 77.88,83.90
             77.88,83.90 78.40,84.45 78.40,84.45
             78.69,84.75 80.02,86.18 81.37,87.63
             82.72,89.07 83.91,90.26 84.01,90.26
             84.37,90.26 87.22,87.33 87.57,86.59
             88.07,85.57 88.12,84.35 87.72,83.27
             87.35,82.29 86.34,81.17 85.37,80.67
             84.56,80.26 82.93,80.15 82.14,80.45 Z
           M 84.29,82.05
           C 85.57,82.65 86.40,83.87 86.40,85.15
             86.40,86.01 86.26,86.27 85.19,87.36
             85.19,87.36 84.31,88.27 84.31,88.27
             84.31,88.27 82.99,86.85 82.99,86.85
             82.26,86.07 81.30,85.05 80.87,84.59
             80.87,84.59 80.08,83.74 80.08,83.74
             80.08,83.74 80.72,83.08 80.72,83.08
             81.43,82.36 82.60,81.70 83.18,81.71
             83.39,81.71 83.89,81.86 84.29,82.05 Z
           M 41.73,84.29
           C 40.25,86.66 37.54,91.19 37.54,91.30
             37.54,91.40 41.78,94.08 42.21,94.25
             42.35,94.31 42.96,93.27 42.86,93.12
             42.82,93.05 42.10,92.59 41.26,92.09
             40.41,91.59 39.73,91.11 39.73,91.03
             39.73,90.91 40.62,89.31 40.84,89.03
             40.86,89.00 41.45,89.31 42.14,89.73
             42.83,90.14 43.45,90.48 43.51,90.48
             43.58,90.48 43.77,90.25 43.93,89.97
             43.93,89.97 44.23,89.46 44.23,89.46
             44.23,89.46 42.96,88.70 42.96,88.70
             42.27,88.29 41.67,87.92 41.64,87.90
             41.61,87.88 41.86,87.39 42.20,86.82
             42.20,86.82 42.81,85.78 42.81,85.78
             42.81,85.78 43.49,86.18 43.49,86.18
             43.87,86.40 44.63,86.87 45.19,87.21
             45.19,87.21 46.21,87.85 46.21,87.85
             46.21,87.85 46.53,87.31 46.53,87.31
             46.71,87.01 46.83,86.72 46.79,86.66
             46.75,86.59 45.82,86.00 44.72,85.34
             43.62,84.68 42.57,84.05 42.40,83.93
             42.10,83.74 42.05,83.77 41.73,84.29 Z
           M 75.18,85.38
           C 73.94,86.09 72.86,86.73 72.79,86.81
             72.70,86.90 73.40,88.28 74.74,90.65
             75.89,92.69 76.87,94.41 76.93,94.48
             77.01,94.57 81.43,92.22 81.85,91.86
             81.94,91.78 81.28,90.61 81.18,90.67
             81.12,90.70 80.37,91.13 79.52,91.63
             78.66,92.12 77.92,92.53 77.88,92.53
             77.79,92.53 76.59,90.47 76.65,90.42
             76.68,90.40 77.26,90.07 77.94,89.68
             78.62,89.29 79.20,88.96 79.22,88.94
             79.32,88.86 78.75,87.85 78.61,87.85
             78.52,87.85 77.89,88.18 77.21,88.57
             76.53,88.97 75.97,89.28 75.95,89.26
             75.94,89.25 75.66,88.78 75.34,88.22
             75.34,88.22 74.75,87.20 74.75,87.20
             74.75,87.20 76.38,86.27 76.38,86.27
             77.28,85.76 78.03,85.31 78.07,85.28
             78.16,85.19 77.79,84.36 77.60,84.22
             77.49,84.14 76.61,84.56 75.18,85.38 Z
           M 47.02,87.88
           C 46.07,90.65 44.54,95.22 44.54,95.30
             44.54,95.36 44.81,95.48 45.14,95.58
             45.47,95.68 45.82,95.80 45.92,95.84
             46.05,95.89 46.28,95.40 46.65,94.28
             47.19,92.68 47.20,92.65 47.58,92.74
             47.79,92.79 48.04,92.91 48.14,93.01
             48.23,93.11 48.51,93.97 48.76,94.94
             49.07,96.12 49.32,96.77 49.52,96.95
             49.81,97.19 50.93,97.57 51.04,97.46
             51.10,97.40 50.15,93.92 49.95,93.46
             49.82,93.17 49.87,93.14 50.36,93.06
             51.53,92.87 52.36,91.95 52.50,90.67
             52.66,89.24 51.73,88.37 49.10,87.49
             48.24,87.20 47.49,86.97 47.43,86.97
             47.38,86.97 47.19,87.38 47.02,87.88 Z
           M 70.55,87.58
           C 70.55,87.58 69.80,87.88 69.80,87.88
             69.80,87.88 70.16,88.85 70.16,88.85
             70.37,89.38 71.06,91.23 71.70,92.96
             72.34,94.69 72.89,96.13 72.92,96.16
             73.01,96.26 74.44,95.68 74.44,95.54
             74.44,95.35 71.51,87.51 71.40,87.39
             71.35,87.33 70.97,87.42 70.55,87.58 Z
           M 66.16,88.83
           C 64.16,89.24 63.65,89.40 63.65,89.58
             63.64,89.82 65.27,97.96 65.34,98.06
             65.39,98.13 66.64,97.92 66.83,97.80
             66.96,97.72 66.94,97.36 66.73,96.32
             66.25,93.98 66.12,94.27 67.88,93.91
             67.88,93.91 69.41,93.61 69.41,93.61
             69.41,93.61 69.38,92.98 69.38,92.98
             69.36,92.63 69.32,92.32 69.29,92.29
             69.26,92.26 68.54,92.38 67.69,92.56
             66.84,92.74 66.11,92.85 66.06,92.80
             65.96,92.70 65.50,90.47 65.57,90.41
             65.59,90.38 66.43,90.18 67.43,89.97
             68.43,89.76 69.27,89.57 69.30,89.54
             69.32,89.51 69.30,89.22 69.25,88.89
             69.18,88.46 69.08,88.29 68.92,88.30
             68.79,88.31 67.55,88.55 66.16,88.83 Z
           M 49.75,89.11
           C 50.45,89.41 50.81,89.87 50.81,90.49
             50.81,91.18 50.36,91.76 49.73,91.87
             49.16,91.98 47.56,91.53 47.65,91.29
             47.68,91.21 47.89,90.59 48.11,89.93
             48.56,88.60 48.54,88.61 49.75,89.11 Z
           M 53.00,89.03
           C 53.00,89.14 52.96,89.47 52.91,89.77
             52.91,89.77 52.82,90.30 52.82,90.30
             52.82,90.30 53.98,90.40 53.98,90.40
             54.62,90.46 55.22,90.56 55.32,90.62
             55.47,90.71 55.43,91.42 55.13,94.15
             54.92,96.03 54.75,97.68 54.75,97.81
             54.75,97.99 54.94,98.08 55.49,98.16
             55.89,98.21 56.27,98.22 56.32,98.17
             56.37,98.12 56.59,96.46 56.81,94.48
             57.03,92.50 57.24,90.86 57.27,90.83
             57.30,90.80 57.87,90.84 58.54,90.92
             59.91,91.10 59.99,91.05 60.00,90.18
             60.00,90.18 60.00,89.66 60.00,89.66
             60.00,89.66 56.90,89.32 56.90,89.32
             55.20,89.14 53.62,88.95 53.40,88.91
             53.12,88.86 53.00,88.89 53.00,89.03 Z
           M 60.58,89.71
           C 60.58,90.47 60.89,96.95 60.96,97.61
             60.96,97.61 61.04,98.37 61.04,98.37
             61.04,98.37 61.83,98.37 61.83,98.37
             61.83,98.37 62.63,98.37 62.63,98.37
             62.63,98.37 62.63,97.68 62.63,97.68
             62.63,97.30 62.55,95.29 62.46,93.22
             62.46,93.22 62.28,89.45 62.28,89.45
             62.28,89.45 61.43,89.45 61.43,89.45
             60.72,89.45 60.58,89.50 60.58,89.71 Z"></path>
</svg>
