<!-- Generated by IcoMoon.io -->
<svg version="1.1" xmlns="http://www.w3.org/2000/svg" viewBox="0 0 38 32" fill="#7681B0">
<title>cert3</title>
<path d="M3.513 1.118c-1.323 2.422-2.563 5.738-3.166 8.467-0.308 1.394-0.353 2.014-0.346 4.73 0.009 2.935 0.035 3.213 0.427 4.547 1.539 5.232 5.786 9.402 12.052 11.834 2.322 0.901 4.649 1.518 4.649 1.233 0-0.043-0.582-0.954-1.292-2.025-4.428-6.673-7.436-14.014-8.077-19.71l-0.096-0.853 0.675 1.634c1.246 3.018 2.473 5.696 4.134 9.023 0.699 1.401 3.353 6.246 3.826 6.986 0.398 0.622 0.774 0.841 0.604 0.352-0.255-0.736-0.563-2.392-0.711-3.82-0.399-3.852 0.838-7.896 3.288-10.748 0.328-0.381 0.596-0.842 0.596-1.023 0-0.497-2.022-3.165-3.439-4.536-2.525-2.444-5.269-4.26-9.033-5.976-1.286-0.587-2.596-1.104-2.91-1.15l-0.571-0.083-0.611 1.118zM33.853 6.074c-5.87 1.488-10.948 4.338-13.587 7.626-3.163 3.941-3.737 9.375-1.579 14.967 0.61 1.582 1.045 2.379 1.261 2.313 0.091-0.028 0.46-0.847 0.819-1.821 0.907-2.454 1.667-4.181 2.719-6.176 1.706-3.234 4.535-7.166 6.489-9.017l0.832-0.788-0.384 0.639c-0.211 0.352-0.736 1.223-1.167 1.935-2.642 4.374-7.28 13.944-7.589 15.658-0.082 0.456-0.071 0.467 0.364 0.378 4.938-1.004 10.092-4.038 12.588-7.41 3.096-4.182 3.803-9.94 2.012-16.391-0.464-1.671-0.727-2.192-1.126-2.228-0.17-0.015-0.914 0.126-1.653 0.313z"></path>
</svg>
