<!-- Generated by IcoMoon.io -->
<svg version="1.1" xmlns="http://www.w3.org/2000/svg" viewBox="0 0 32 32" fill="#7681B0">
<title>cert4</title>
<path d="M28.984 19.924c-1.835 0.113-4.248 1.951-6.577 3.008-2.852 1.293-7.294 0.253-7.295 0.253 0.684-0.322 3.468-0.986 4.030-1.235 2.981-1.313 2.729-4.054 1.31-4.031-1.877 0.032-2.977 0.493-6.719 1.004-2.837 0.386-6.191 0.245-7.801 0.861-2.272 0.87-5.931 6.721-5.931 6.721l5.658 5.493c0 0 3.502-3.456 5.206-3.456 3.882 0 4.040-0.053 7.646-0.249 1.532-0.082 1.853-0.145 2.73-0.443 4.673-1.582 9.691-5.8 9.784-6.308 0.215-1.175-1.068-1.681-2.039-1.621z"></path>
<path d="M21.177 11.422c0.097 0.020 0.196-0.023 0.249-0.107 1.3-2.099 3.262-4.639 5.822-6.364-2.385 2.296-4.070 4.713-5.091 6.988-0.031 0.068-0.027 0.147 0.009 0.212s0.101 0.11 0.175 0.12c0.167 0.023 0.34 0.034 0.514 0.034 1.635 0 3.263-0.998 4.34-1.836 1.231-0.956 2.413-2.22 3.162-3.38 1.124-1.741 1.827-3.887 1.979-6.043 0.005-0.069-0.020-0.136-0.069-0.185s-0.116-0.074-0.184-0.069c-1.628 0.116-5.669 0.639-8.032 3.003-0.083 0.075-0.953 0.877-1.762 2.159-1.109 1.759-1.558 3.581-1.299 5.27 0.015 0.098 0.089 0.177 0.187 0.197z"></path>
<path d="M14.714 13.939c1.027 0.798 2.579 1.749 4.137 1.749 0.166 0 0.331-0.011 0.49-0.033 0.071-0.010 0.133-0.052 0.167-0.114s0.038-0.137 0.009-0.202c-0.973-2.168-2.578-4.471-4.852-6.66 2.439 1.645 4.31 4.065 5.548 6.066 0.050 0.080 0.145 0.121 0.237 0.102s0.164-0.094 0.178-0.187c0.247-1.61-0.181-3.347-1.238-5.022-0.771-1.223-1.601-1.987-1.679-2.058-2.252-2.253-6.103-2.752-7.655-2.862-0.065-0.005-0.129 0.019-0.176 0.066s-0.070 0.111-0.066 0.176c0.145 2.054 0.815 4.099 1.886 5.758 0.714 1.106 1.841 2.31 3.014 3.222z"></path>
<path d="M16.934 6.143c0.684 0.531 1.718 1.165 2.755 1.165 0.111 0 0.221-0.008 0.326-0.022 0.047-0.006 0.088-0.035 0.111-0.076s0.025-0.092 0.006-0.135c-0.648-1.444-1.717-2.978-3.231-4.436 1.624 1.095 2.87 2.708 3.695 4.040 0.033 0.053 0.096 0.081 0.158 0.068s0.109-0.062 0.119-0.125c0.164-1.072-0.121-2.229-0.825-3.345-0.514-0.814-1.066-1.323-1.118-1.371-1.5-1.5-4.065-1.833-5.099-1.906-0.044-0.003-0.086 0.013-0.117 0.044s-0.047 0.074-0.044 0.117c0.097 1.368 0.543 2.73 1.256 3.835 0.476 0.737 1.226 1.539 2.007 2.146z"></path>
</svg>
