<!-- Generated by IcoMoon.io -->
<svg version="1.1" xmlns="http://www.w3.org/2000/svg"  viewBox="0 0 32 32" fill="#7681B0">
<title>cert1</title>
<path d="M23.307 27.811c0.239 0.038 0.484-0.020 0.68-0.164 0.193-0.14 0.328-0.356 0.364-0.597l0.215-1.429c0.043-0.288 0.223-0.532 0.482-0.663l1.294-0.647c0.219-0.111 0.383-0.3 0.457-0.531 0.076-0.233 0.052-0.482-0.057-0.699l-0.667-1.289c-0.131-0.252-0.131-0.559 0-0.813l0.667-1.288c0.109-0.216 0.132-0.466 0.057-0.699-0.075-0.232-0.239-0.42-0.457-0.531l-1.294-0.647c-0.26-0.131-0.439-0.375-0.482-0.663l-0.215-1.429c-0.036-0.241-0.171-0.456-0.364-0.596-0.196-0.145-0.44-0.204-0.68-0.164l-1.432 0.239c-0.284 0.047-0.571-0.047-0.775-0.252l-1.017-1.033c-0.172-0.172-0.402-0.269-0.647-0.269-0.241 0-0.476 0.098-0.647 0.269l-1.017 1.033c-0.202 0.206-0.491 0.299-0.775 0.252l-1.429-0.235c-0.239-0.039-0.484 0.019-0.681 0.164-0.195 0.14-0.328 0.355-0.364 0.596l-0.214 1.429c-0.045 0.288-0.223 0.532-0.482 0.663l-1.296 0.647c-0.215 0.111-0.382 0.299-0.456 0.531-0.075 0.233-0.053 0.482 0.056 0.699l0.667 1.288c0.132 0.253 0.132 0.56 0 0.813l-0.667 1.289c-0.109 0.216-0.131 0.466-0.056 0.699 0.075 0.23 0.239 0.42 0.456 0.531l1.296 0.647c0.26 0.131 0.438 0.375 0.482 0.663l0.214 1.429c0.036 0.239 0.169 0.456 0.364 0.597 0.196 0.144 0.44 0.202 0.681 0.164l1.429-0.235c0.284-0.050 0.573 0.046 0.775 0.251l1.017 1.031c0.172 0.176 0.405 0.272 0.647 0.272 0.243 0 0.476-0.097 0.647-0.272l1.017-1.031c0.204-0.205 0.493-0.3 0.775-0.251l1.432 0.232zM19.436 26.768c-3.042 0-5.515-2.473-5.515-5.513s2.474-5.516 5.515-5.516c3.042 0 5.515 2.477 5.515 5.516s-2.472 5.513-5.515 5.513z"></path>
<path d="M19.437 16.534c-2.598 0-4.713 2.113-4.713 4.712s2.117 4.712 4.713 4.712c2.6 0 4.713-2.113 4.713-4.712s-2.113-4.712-4.713-4.712z"></path>
<path d="M27.65 28.844l-2.564-2.566-0.13 0.865c-0.061 0.398-0.283 0.766-0.61 1.002-0.325 0.237-0.731 0.337-1.135 0.271l-1.433-0.234c-0.118-0.008-0.19 0.025-0.242 0.079l-0.244 0.246 3.35 3.349c0.13 0.13 0.317 0.176 0.49 0.123 0.173-0.055 0.3-0.199 0.336-0.378l0.302-1.625 1.63-0.305c0.178-0.033 0.322-0.162 0.374-0.336 0.053-0.174 0.005-0.364-0.123-0.49z"></path>
<path d="M17.142 28.175l-1.476 0.241c-0.414 0.064-0.815-0.036-1.14-0.275-0.325-0.234-0.546-0.601-0.607-1.002l-0.13-0.862-2.563 2.566c-0.127 0.127-0.174 0.316-0.122 0.489 0.055 0.174 0.2 0.3 0.375 0.336l1.629 0.304 0.305 1.628c0.033 0.179 0.162 0.323 0.335 0.378 0.172 0.052 0.36 0.006 0.487-0.122l3.349-3.35-0.244-0.247c-0.053-0.055-0.125-0.084-0.197-0.084z"></path>
<path d="M17.375 8.075h-8.731c-0.315 0-0.569 0.201-0.569 0.447-0.001 0.248 0.254 0.45 0.569 0.45h8.731c0.314 0 0.569-0.2 0.569-0.449 0-0.247-0.256-0.448-0.569-0.448z"></path>
<path d="M21.038 6.28h-12.17c-0.439 0-0.793 0.201-0.793 0.447-0.001 0.248 0.353 0.45 0.793 0.45h12.17c0.437 0 0.793-0.2 0.793-0.449 0-0.247-0.357-0.448-0.793-0.448z"></path>
<path d="M21.038 4.486h-12.17c-0.439 0-0.793 0.201-0.793 0.447-0.001 0.248 0.353 0.45 0.793 0.45h12.17c0.437 0 0.793-0.2 0.793-0.449 0-0.247-0.357-0.448-0.793-0.448z"></path>
<path d="M17.375 9.869h-8.731c-0.315 0-0.569 0.201-0.569 0.447-0.001 0.248 0.254 0.45 0.569 0.45h8.731c0.314 0 0.569-0.2 0.569-0.449 0-0.247-0.256-0.448-0.569-0.448z"></path>
<path d="M17.375 11.664h-8.731c-0.315 0-0.569 0.201-0.569 0.447-0.001 0.248 0.254 0.45 0.569 0.45h8.731c0.314 0 0.569-0.2 0.569-0.449 0-0.247-0.256-0.448-0.569-0.448z"></path>
<path d="M12.564 25.729l-0.592-0.295c-0.151-0.076-0.289-0.174-0.416-0.284h-5.055c-0.346 0-0.627-0.283-0.627-0.626v-22.228c0-0.347 0.281-0.629 0.627-0.629h16.823c0.345 0 0.627 0.281 0.627 0.629v11.463c0.28 0.066 0.547 0.188 0.781 0.363 0.458 0.327 0.775 0.85 0.86 1.42l0.025-13.245c0.003-1.266-1.028-2.297-2.295-2.297h-16.823c-1.266 0-2.297 1.032-2.297 2.297v22.229c0 1.268 1.032 2.299 2.297 2.299h4.97l1.093-1.096z"></path>
</svg>
