<!-- Generated by IcoMoon.io -->
<svg version="1.1" xmlns="http://www.w3.org/2000/svg"  viewBox="0 0 36 32" fill="#7681B0">
<title>cert2</title>
<path d="M15.42 0.058c-0.603 0.153-1.39 0.652-1.8 1.142l-0.161 0.192-0.3-0.064c-0.429-0.091-1.284-0.086-1.656 0.011-0.898 0.233-1.614 0.841-2.093 1.776l-0.229 0.447-0.401 0.058c-0.835 0.121-1.476 0.424-1.992 0.941s-0.818 1.16-0.939 2.001l-0.059 0.406-0.346 0.165c-0.715 0.341-1.277 0.86-1.596 1.471-0.257 0.493-0.349 0.873-0.349 1.448v0.473h-2.56l0.015 0.259 0.015 0.259 10.613 0.023 0.197-0.28c0.305-0.435 1.277-1.383 1.793-1.749 0.861-0.611 1.979-1.102 3.022-1.328 0.571-0.124 1.982-0.174 2.604-0.093 2.047 0.268 4.009 1.388 5.257 3.001l0.344 0.444 10.588 0.007v-0.542h-2.506v-0.441c0-0.571-0.065-0.869-0.301-1.378-0.161-0.348-0.262-0.485-0.621-0.84-0.345-0.341-0.522-0.472-0.902-0.666l-0.473-0.241-0.054-0.381c-0.235-1.665-1.279-2.718-2.933-2.958l-0.399-0.058-0.24-0.472c-0.192-0.379-0.323-0.556-0.66-0.897-0.458-0.463-0.867-0.71-1.414-0.852-0.352-0.091-1.336-0.098-1.705-0.011l-0.242 0.057-0.375-0.369c-0.41-0.403-0.908-0.725-1.388-0.897-0.254-0.091-0.414-0.11-0.922-0.112-0.697-0.002-1.004 0.075-1.684 0.42l-0.382 0.194-0.38-0.193c-0.617-0.313-0.95-0.404-1.559-0.426-0.374-0.013-0.629 0.003-0.828 0.054zM20.105 2.223c0.848 0.121 1.608 0.302 2.486 0.594 3.040 1.011 5.598 3.016 7.307 5.727 0.29 0.46 1.016 1.843 1.016 1.936 0 0.026-1.098 0.045-2.665 0.045h-2.665l-0.004-0.234c-0.002-0.135-0.048-0.32-0.109-0.438-0.207-0.403-0.729-0.713-1.074-0.637-0.137 0.030-0.14 0.026-0.145-0.187-0.014-0.667-0.817-1.187-1.454-0.941-0.047 0.018-0.086-0.042-0.127-0.197-0.16-0.599-1.070-0.969-1.535-0.624l-0.134 0.099-0.089-0.199c-0.109-0.241-0.332-0.42-0.641-0.513-0.401-0.121-0.746-0.063-0.991 0.167l-0.145 0.135-0.101-0.155c-0.323-0.494-1.368-0.494-1.691 0l-0.101 0.155-0.138-0.13c-0.443-0.415-1.355-0.231-1.638 0.33l-0.102 0.203-0.139-0.104c-0.205-0.154-0.666-0.145-0.987 0.019-0.272 0.138-0.502 0.421-0.549 0.672-0.027 0.146-0.045 0.163-0.136 0.13-0.058-0.021-0.23-0.037-0.384-0.035-0.22 0.002-0.329 0.034-0.515 0.149-0.306 0.19-0.531 0.544-0.532 0.84-0.001 0.213-0.002 0.215-0.153 0.186-0.528-0.099-1.16 0.482-1.171 1.076l-0.004 0.234-5.338 0 0.034-0.111c0.076-0.248 0.688-1.396 1.033-1.938 0.556-0.872 1.099-1.544 1.888-2.337 1.556-1.565 3.38-2.683 5.483-3.362 1.016-0.328 1.941-0.518 3.14-0.644 0.454-0.048 2.529 0.013 3.070 0.090zM16.593 2.966c-0.486 0.062-0.937 0.115-1.001 0.117-0.109 0.004-0.115 0.019-0.092 0.228 0.014 0.123 0.033 0.231 0.043 0.239s0.202-0.006 0.427-0.032c0.225-0.026 0.422-0.034 0.439-0.017 0.024 0.024 0.296 2.191 0.305 2.429 0.002 0.043 0.069 0.053 0.236 0.033 0.128-0.015 0.257-0.035 0.286-0.044 0.036-0.011 0.010-0.385-0.084-1.19-0.075-0.646-0.138-1.21-0.139-1.253-0.002-0.062 0.086-0.089 0.418-0.13 0.231-0.028 0.432-0.063 0.447-0.078s0.012-0.117-0.007-0.228c-0.033-0.193-0.040-0.2-0.214-0.194-0.099 0.003-0.578 0.057-1.064 0.119zM18.467 3.518c-0.017 0.345-0.046 1.022-0.064 1.502l-0.032 0.874h0.549l0.026-0.259c0.015-0.142 0.038-0.602 0.053-1.022s0.041-0.98 0.057-1.244l0.030-0.48h-0.588l-0.032 0.628zM19.94 3.074c-0.037 0.129-0.519 2.58-0.534 2.716-0.012 0.105 0.016 0.125 0.246 0.178 0.143 0.033 0.268 0.046 0.278 0.030s0.068-0.28 0.128-0.584c0.127-0.641 0.070-0.607 0.756-0.455 0.241 0.053 0.444 0.091 0.452 0.084s0.035-0.109 0.061-0.225c0.034-0.153 0.032-0.216-0.010-0.228-0.031-0.009-0.267-0.055-0.524-0.102s-0.48-0.092-0.497-0.101c-0.034-0.018 0.112-0.784 0.157-0.829 0.016-0.016 0.291 0.027 0.612 0.095s0.608 0.124 0.64 0.124c0.052 0 0.146-0.383 0.104-0.425-0.022-0.022-1.697-0.363-1.784-0.363-0.034 0-0.073 0.039-0.087 0.086zM14.136 3.531c-0.332 0.071-1.18 0.378-1.17 0.424 0.038 0.175 0.91 2.708 0.945 2.743s0.544-0.088 0.544-0.131c0-0.005-0.077-0.225-0.172-0.491s-0.172-0.512-0.172-0.549c0-0.037 0.065-0.090 0.145-0.118 0.167-0.058 0.225-0.026 0.862 0.482 0.225 0.179 0.416 0.296 0.462 0.283 0.043-0.013 0.183-0.052 0.312-0.088s0.233-0.077 0.232-0.092c-0.001-0.024-1.008-0.784-1.174-0.887-0.050-0.031-0.040-0.064 0.044-0.149 0.255-0.256 0.314-0.669 0.145-1.018-0.167-0.346-0.557-0.506-1.004-0.41zM22.469 3.739c-0.69 1.821-0.984 2.669-0.935 2.699 0.137 0.085 0.445 0.16 0.483 0.117 0.034-0.038 1.037-2.699 1.037-2.752 0-0.021-0.441-0.175-0.501-0.175-0.023 0-0.061 0.050-0.084 0.111zM14.557 4.117c0.294 0.295 0.126 0.708-0.352 0.867-0.136 0.045-0.254 0.075-0.262 0.065-0.029-0.035-0.274-0.807-0.274-0.866 0-0.067 0.393-0.202 0.606-0.207 0.091-0.002 0.188 0.046 0.283 0.141zM23.324 5.14c-0.297 0.532-0.622 1.114-0.722 1.293l-0.182 0.326 0.802 0.454c0.441 0.25 0.816 0.454 0.834 0.454 0.034 0 0.226-0.299 0.227-0.353 0-0.018-0.249-0.171-0.553-0.341s-0.559-0.313-0.567-0.319c-0.023-0.016 0.338-0.659 0.389-0.69 0.025-0.016 0.228 0.076 0.45 0.203s0.42 0.241 0.439 0.252c0.019 0.011 0.080-0.068 0.134-0.175l0.099-0.195-0.159-0.095c-0.087-0.052-0.286-0.166-0.441-0.253s-0.282-0.169-0.282-0.182c0-0.063 0.371-0.659 0.411-0.659 0.025 0 0.277 0.133 0.559 0.296s0.533 0.296 0.557 0.296 0.086-0.084 0.138-0.186l0.095-0.186-0.155-0.090c-0.577-0.336-1.455-0.817-1.489-0.816-0.023 0.001-0.285 0.436-0.582 0.968zM11.385 4.765c-0.432 0.266-0.78 0.508-0.773 0.537 0.011 0.047 1.468 2.461 1.513 2.507 0.015 0.015 0.618-0.343 1.46-0.866l0.184-0.115-0.252-0.381-0.565 0.345c-0.31 0.19-0.57 0.337-0.577 0.327s-0.105-0.168-0.217-0.35l-0.204-0.332 0.256-0.163c0.141-0.089 0.339-0.213 0.44-0.275s0.184-0.121 0.184-0.13c0-0.010-0.047-0.097-0.104-0.195-0.096-0.163-0.112-0.172-0.209-0.11-0.291 0.186-0.701 0.423-0.755 0.438-0.064 0.017-0.462-0.599-0.425-0.658 0.012-0.019 0.263-0.181 0.558-0.359l0.536-0.324-0.101-0.171c-0.055-0.094-0.115-0.179-0.133-0.189s-0.386 0.199-0.818 0.466zM25.224 6.637c-0.549 0.595-0.991 1.102-0.983 1.128 0.039 0.113 1.014 0.956 1.24 1.072 0.544 0.28 1.246 0.131 1.699-0.362 0.303-0.329 0.417-0.614 0.414-1.030-0.004-0.512-0.129-0.73-0.78-1.366-0.298-0.291-0.553-0.528-0.566-0.527s-0.474 0.489-1.023 1.084zM9.64 6.070c-0.354 0.165-0.702 0.538-0.838 0.898-0.273 0.726 0.089 1.547 0.851 1.929 0.387 0.194 0.821 0.206 1.191 0.033 0.348-0.162 0.739-0.604 0.838-0.947 0.109-0.377 0.088-0.436-0.162-0.455-0.191-0.014-0.209-0.005-0.237 0.123-0.079 0.363-0.336 0.69-0.627 0.8-0.356 0.134-0.774 0.003-1.082-0.34-0.342-0.38-0.412-0.732-0.222-1.124 0.119-0.246 0.417-0.487 0.661-0.532 0.218-0.041 0.269-0.113 0.234-0.332-0.027-0.164-0.044-0.182-0.183-0.181-0.084 0-0.275 0.057-0.423 0.126zM26.928 6.862c0.139 0.191 0.187 0.532 0.108 0.771-0.076 0.23-0.41 0.605-0.646 0.726-0.229 0.117-0.584 0.125-0.792 0.017-0.175-0.090-0.629-0.503-0.629-0.571 0-0.025 0.312-0.377 0.693-0.783l0.693-0.737 0.228 0.208c0.125 0.114 0.28 0.28 0.344 0.368zM16.909 8.013c-1.73 0.306-3.354 1.228-4.496 2.554-0.201 0.233-0.365 0.441-0.365 0.462s2.764 0.037 6.142 0.037 6.142-0.017 6.142-0.037c0-0.1-0.807-0.956-1.244-1.319-1.123-0.932-2.406-1.515-3.783-1.72-0.692-0.103-1.737-0.093-2.395 0.023zM9.86 12.054c-0.565 0.056-0.964 0.169-1.497 0.425-0.402 0.194-0.528 0.287-0.91 0.674-0.504 0.511-0.782 0.996-0.965 1.681-0.144 0.539-0.156 1.705-0.022 2.217 0.345 1.321 1.227 2.273 2.511 2.714 0.351 0.12 0.48 0.137 1.204 0.155 0.69 0.017 0.886 0.005 1.321-0.085 0.581-0.12 0.959-0.262 1.382-0.52l0.294-0.179v-3.145h-2.555v0.465c0 0.602 0.019 0.619 0.723 0.619 0.278 0 0.505 0.017 0.506 0.037s0.004 0.336 0.008 0.702l0.007 0.665-0.403 0.137c-1.061 0.36-2.182 0.162-2.855-0.506-1.229-1.219-0.954-3.823 0.482-4.552 0.381-0.193 0.764-0.275 1.286-0.275 0.595 0 0.931 0.086 1.552 0.396 0.618 0.309 0.659 0.3 1.004-0.229 0.135-0.207 0.245-0.391 0.245-0.407-0.002-0.073-0.55-0.431-0.957-0.625-0.664-0.317-1.509-0.447-2.36-0.364zM14.517 15.98l0.013 3.879 1.252 0.028 0.013-2.786 0.013-2.786 1.182 2.203c0.791 1.474 1.227 2.236 1.318 2.304 0.188 0.141 0.656 0.142 0.842 0.003 0.086-0.065 0.532-0.853 1.293-2.287l1.162-2.189 0.013 2.768 0.013 2.768h1.277v-7.783h-0.661c-0.616 0-0.669 0.008-0.784 0.111-0.118 0.106-2.141 3.845-2.547 4.709l-0.193 0.411-0.161-0.362c-0.089-0.199-0.692-1.348-1.34-2.554-0.829-1.542-1.214-2.21-1.296-2.253-0.075-0.039-0.349-0.061-0.768-0.062l-0.651-0.001 0.013 3.879zM24.503 12.157c-0.014 0.037-0.019 1.784-0.013 3.884l0.012 3.817 1.449 0.027v-2.761l0.848-0c1.272-0.001 1.906-0.186 2.503-0.733 0.93-0.852 0.975-2.6 0.090-3.487-0.304-0.305-0.709-0.526-1.214-0.664-0.346-0.094-0.546-0.107-2.017-0.127-1.341-0.018-1.638-0.010-1.658 0.044zM27.721 13.334c0.56 0.209 0.793 0.537 0.826 1.16 0.036 0.679-0.171 1.091-0.671 1.337-0.264 0.13-0.317 0.137-1.101 0.153l-0.823 0.016v-2.778l0.798 0.024c0.476 0.014 0.868 0.050 0.97 0.088zM2.116 14.576l-0.271 0.85-1.845 0.049 0.74 0.53c0.719 0.515 0.738 0.534 0.695 0.665-0.339 1.038-0.495 1.552-0.475 1.572 0.013 0.013 0.347-0.212 0.741-0.501l0.716-0.526 0.737 0.546c0.406 0.3 0.737 0.527 0.737 0.505s-0.12-0.415-0.267-0.871c-0.147-0.457-0.259-0.844-0.248-0.861s0.341-0.262 0.735-0.545l0.716-0.513-1.842-0.049-0.271-0.849c-0.149-0.467-0.284-0.85-0.299-0.85s-0.15 0.382-0.299 0.849zM33.663 14.576l-0.269 0.85-1.851 0.049 0.74 0.53c0.407 0.292 0.732 0.558 0.722 0.591s-0.133 0.411-0.273 0.84c-0.14 0.428-0.243 0.79-0.229 0.804s0.348-0.211 0.742-0.499l0.717-0.524 0.717 0.524c0.394 0.288 0.728 0.513 0.742 0.499s-0.089-0.376-0.229-0.804-0.263-0.806-0.274-0.84c-0.010-0.033 0.315-0.299 0.722-0.591l0.74-0.53-1.85-0.049-0.269-0.85c-0.148-0.467-0.282-0.85-0.298-0.85s-0.151 0.382-0.299 0.85zM0.964 20.986c-0.014 0.038-0.019 0.161-0.011 0.274l0.015 0.205 2.506 0.019 0.029 0.542c0.016 0.298 0.057 0.641 0.091 0.762 0.222 0.788 0.893 1.562 1.727 1.994l0.471 0.244 0.058 0.399c0.239 1.657 1.29 2.704 2.95 2.939l0.38 0.054 0.241 0.474c0.193 0.381 0.324 0.558 0.664 0.904 0.354 0.36 0.491 0.461 0.838 0.623 0.228 0.106 0.532 0.217 0.675 0.247 0.351 0.073 1.193 0.066 1.564-0.014l0.301-0.065 0.2 0.233c0.369 0.43 1.070 0.889 1.626 1.065 0.124 0.039 0.436 0.084 0.693 0.1 0.588 0.036 1.103-0.082 1.751-0.402l0.449-0.222 0.509 0.241c0.28 0.133 0.668 0.276 0.863 0.32 1.094 0.243 2.126-0.085 3.007-0.956l0.374-0.369 0.27 0.057c0.401 0.084 1.302 0.080 1.648-0.008 0.944-0.24 1.758-0.964 2.226-1.976l0.116-0.25 0.394-0.056c0.828-0.117 1.658-0.524 2.102-1.029 0.446-0.508 0.737-1.175 0.844-1.933l0.055-0.393 0.308-0.145c0.65-0.305 1.267-0.838 1.568-1.354 0.274-0.47 0.378-0.847 0.406-1.461l0.025-0.568 2.493 0.004 0-0.283v-0.283h-10.6l-0.123 0.185c-0.229 0.345-0.854 1.021-1.27 1.373-1.076 0.912-2.27 1.504-3.619 1.794-0.611 0.131-1.98 0.185-2.574 0.1-2.125-0.301-4.021-1.38-5.276-3.001l-0.344-0.444-5.296-0.003c-4.47-0.003-5.3 0.007-5.322 0.065zM12.048 20.955c0 0.1 0.807 0.956 1.244 1.319 1.136 0.943 2.409 1.517 3.828 1.727 0.707 0.105 1.915 0.072 2.568-0.069 1.307-0.282 2.453-0.853 3.506-1.749 0.357-0.303 1.081-1.085 1.129-1.219 0.010-0.028-2.359-0.046-6.129-0.046-3.38 0-6.146 0.017-6.146 0.038zM10.779 21.576c-0.037 0.218 0.102 0.576 0.317 0.816 0.255 0.285 0.561 0.423 0.847 0.385 0.17-0.023 0.188-0.015 0.166 0.069-0.014 0.052 0.004 0.198 0.040 0.325 0.159 0.569 0.922 0.958 1.434 0.73 0.067-0.030 0.086-0.015 0.086 0.067 0 0.172 0.183 0.48 0.368 0.622 0.357 0.273 0.78 0.336 1.145 0.17 0.197-0.090 0.213-0.090 0.241-0.011 0.063 0.179 0.275 0.41 0.473 0.514 0.155 0.082 0.293 0.109 0.558 0.11 0.317 0.002 0.374-0.013 0.572-0.153l0.22-0.155 0.105 0.142c0.358 0.485 1.33 0.481 1.676-0.007l0.108-0.152 0.106 0.099c0.459 0.433 1.402 0.259 1.67-0.309l0.081-0.172 0.229 0.101c0.575 0.255 1.35-0.134 1.47-0.739 0.025-0.126 0.050-0.154 0.112-0.126 0.044 0.020 0.172 0.045 0.285 0.057 0.565 0.058 1.149-0.446 1.164-1.003l0.006-0.204 0.185 0.025c0.553 0.074 1.221-0.618 1.153-1.195-0.011-0.097 0.021-0.099 2.657-0.11l2.668-0.012-0.033 0.11c-0.076 0.248-0.688 1.396-1.033 1.937-0.561 0.879-1.101 1.548-1.887 2.335-2.154 2.158-4.682 3.425-7.813 3.917-0.792 0.124-2.612 0.153-3.457 0.055-2.648-0.309-4.928-1.226-7.019-2.821-0.631-0.482-1.87-1.713-2.347-2.332-0.547-0.71-1.077-1.545-1.461-2.3-0.19-0.374-0.361-0.728-0.378-0.787l-0.032-0.106 2.667 0.008c2.576 0.008 2.667 0.011 2.652 0.1zM9.911 23.004c-0.32 0.106-0.488 0.211-0.729 0.456-0.309 0.314-0.443 0.607-0.467 1.020-0.017 0.299-0.002 0.369 0.138 0.655 0.25 0.509 0.758 0.857 1.25 0.857h0.181l-0.015-0.204c-0.015-0.198-0.021-0.206-0.245-0.262-0.485-0.123-0.814-0.551-0.764-0.996 0.052-0.463 0.529-0.958 0.99-1.027 0.415-0.062 0.902 0.273 1.028 0.707 0.071 0.245 0.16 0.296 0.406 0.234 0.155-0.039 0.155-0.216-0.001-0.553-0.308-0.664-1.159-1.089-1.772-0.886zM25.648 23.058c-0.266 0.103-0.461 0.248-0.975 0.73l-0.46 0.431 0.175 0.185c0.096 0.102 0.547 0.584 1.001 1.071s0.854 0.887 0.888 0.887c0.122 0 1.080-0.985 1.201-1.235 0.166-0.343 0.184-0.755 0.048-1.117-0.124-0.331-0.465-0.709-0.791-0.876-0.272-0.14-0.82-0.177-1.087-0.074zM26.37 23.595c0.431 0.201 0.712 0.613 0.712 1.043 0 0.291-0.047 0.378-0.407 0.747l-0.297 0.305-0.446-0.477c-0.246-0.262-0.567-0.605-0.713-0.762l-0.267-0.285 0.217-0.222c0.239-0.244 0.634-0.465 0.83-0.465 0.069 0 0.236 0.052 0.372 0.115zM12.034 24.35c-0.498 0.798-1.411 2.326-1.411 2.362s1.428 0.936 1.573 0.994c0.049 0.019 0.253-0.332 0.222-0.382-0.014-0.022-0.257-0.178-0.541-0.346s-0.516-0.329-0.516-0.356c0-0.039 0.301-0.578 0.375-0.673 0.008-0.011 0.205 0.095 0.438 0.234s0.441 0.253 0.463 0.253c0.022 0 0.086-0.077 0.141-0.171l0.1-0.171-0.427-0.256c-0.235-0.141-0.436-0.263-0.446-0.271s0.074-0.172 0.188-0.364l0.207-0.349 0.23 0.134c0.126 0.074 0.384 0.23 0.572 0.347l0.343 0.213 0.109-0.181c0.060-0.1 0.099-0.199 0.086-0.22s-0.327-0.22-0.697-0.443c-0.371-0.223-0.722-0.436-0.782-0.474-0.101-0.064-0.115-0.057-0.225 0.12zM23.302 24.718c-0.417 0.239-0.78 0.456-0.806 0.482-0.030 0.030 0.205 0.494 0.657 1.294 0.387 0.685 0.72 1.265 0.74 1.289 0.026 0.030 1.514-0.761 1.657-0.882 0.031-0.026-0.192-0.42-0.226-0.401-0.019 0.011-0.271 0.156-0.561 0.322s-0.537 0.302-0.551 0.302c-0.032 0-0.437-0.693-0.414-0.71 0.009-0.007 0.205-0.119 0.434-0.249s0.424-0.242 0.432-0.249c0.033-0.027-0.16-0.369-0.208-0.368-0.029 0.001-0.24 0.11-0.469 0.243s-0.421 0.238-0.425 0.233c-0.005-0.005-0.098-0.163-0.206-0.351l-0.198-0.342 0.548-0.314c0.301-0.172 0.557-0.323 0.568-0.334 0.030-0.030-0.094-0.309-0.158-0.358-0.036-0.027-0.333 0.116-0.814 0.392zM13.818 25.56c-0.322 0.933-0.836 2.472-0.836 2.5 0 0.018 0.091 0.060 0.202 0.094s0.23 0.072 0.265 0.085c0.044 0.017 0.12-0.146 0.246-0.525 0.179-0.538 0.185-0.548 0.312-0.517 0.071 0.018 0.155 0.058 0.187 0.090s0.126 0.324 0.211 0.649c0.104 0.4 0.187 0.619 0.255 0.677 0.097 0.082 0.476 0.211 0.512 0.174 0.021-0.021-0.298-1.192-0.367-1.35-0.042-0.095-0.028-0.108 0.138-0.135 0.396-0.063 0.675-0.374 0.722-0.802 0.053-0.482-0.262-0.776-1.146-1.072-0.291-0.097-0.544-0.177-0.562-0.177s-0.080 0.139-0.138 0.308zM21.743 25.46l-0.254 0.098 0.124 0.327c0.068 0.18 0.301 0.804 0.517 1.387s0.401 1.067 0.41 1.077c0.033 0.035 0.513-0.161 0.513-0.209 0-0.065-0.986-2.706-1.025-2.747-0.017-0.017-0.145 0.013-0.285 0.067zM20.265 25.88c-0.674 0.138-0.848 0.19-0.848 0.253-0 0.078 0.547 2.822 0.57 2.854 0.018 0.026 0.441-0.046 0.504-0.085 0.044-0.027 0.035-0.151-0.037-0.5-0.16-0.786-0.205-0.691 0.388-0.81l0.516-0.103-0.010-0.212c-0.005-0.117-0.018-0.221-0.028-0.231s-0.253 0.031-0.54 0.091c-0.287 0.060-0.534 0.097-0.548 0.083-0.034-0.034-0.19-0.786-0.168-0.808 0.009-0.009 0.292-0.075 0.629-0.146s0.619-0.137 0.628-0.146c0.009-0.009 0.001-0.108-0.016-0.22-0.023-0.145-0.055-0.202-0.112-0.199-0.044 0.003-0.461 0.083-0.927 0.179zM14.736 25.975c0.238 0.099 0.358 0.255 0.358 0.463 0 0.233-0.152 0.428-0.365 0.468-0.19 0.036-0.73-0.116-0.7-0.197 0.010-0.029 0.081-0.235 0.156-0.458 0.151-0.449 0.145-0.445 0.551-0.276zM15.831 25.948c-0 0.037-0.014 0.148-0.030 0.247l-0.030 0.179 0.391 0.035c0.215 0.019 0.419 0.052 0.453 0.073 0.050 0.031 0.037 0.271-0.066 1.19-0.071 0.633-0.128 1.188-0.128 1.233 0 0.061 0.064 0.090 0.249 0.116 0.137 0.019 0.263 0.020 0.28 0.003s0.092-0.576 0.166-1.242c0.074-0.666 0.143-1.219 0.154-1.23s0.203 0.004 0.428 0.032c0.462 0.058 0.49 0.044 0.491-0.251l0.001-0.175-1.044-0.113c-0.574-0.062-1.105-0.125-1.179-0.14-0.094-0.018-0.135-0.006-0.136 0.042zM18.386 26.176c-0 0.257 0.104 2.44 0.127 2.66l0.027 0.259h0.533l0.001-0.234c0-0.129-0.026-0.805-0.058-1.502l-0.058-1.268h-0.286c-0.24 0-0.286 0.014-0.286 0.086z"></path>
</svg>
